<svg width="28" height="37" viewBox="0 0 28 37" fill="none" xmlns="http://www.w3.org/2000/svg">
<g clip-path="url(#clip0_577_1370)">
<path d="M18.3313 23.9463C18.3313 24.0259 18.3313 24.1022 18.3249 24.1786C17.2749 24.7131 15.1558 25.7886 13.8099 26.4568C13.1227 26.7972 12.639 27.0327 12.6008 27.0359L10.8477 24.0099L17.2113 20.8281L18.2358 22.6004C18.3027 23.0618 18.3313 23.5104 18.3313 23.9463Z" stroke="black"/>
<path d="M17.9749 31.8906L17.2113 32.3265L10.8477 35.5084L12.6008 34.5061L16.8899 32.3615C16.9854 32.3329 17.0808 32.3011 17.1731 32.2597C17.3417 32.2024 17.504 32.1293 17.6631 32.0465L17.9749 31.8906Z" stroke="black"/>
<path d="M20.835 25.3966C20.835 25.6638 20.8287 25.9247 20.8128 26.1761C20.7523 27.3566 20.5423 28.3779 20.1828 29.2434C19.8678 30.0166 19.435 30.6657 18.8814 31.1875C18.7064 31.3561 18.5218 31.5057 18.3246 31.6457C18.1941 31.7379 18.0605 31.8238 17.9205 31.9066C17.8346 31.9575 17.7487 32.0052 17.6596 32.0497C17.5005 32.1325 17.3382 32.2057 17.1696 32.2629C17.0773 32.3043 16.9818 32.3361 16.8864 32.3647C15.1587 32.9152 13.135 32.5175 10.8155 31.1811L10.5959 31.0538L12.5973 34.5093L10.8441 35.5116L5.83594 26.8697L10.8441 24.0125L12.5973 27.0384L10.5959 28.1807L10.8155 28.3047C12.5559 29.3102 14.0768 29.6029 15.3814 29.1797C15.6423 29.1002 15.8937 28.9857 16.1387 28.8457C16.495 28.6388 16.81 28.3843 17.0805 28.082C17.1091 28.0502 17.1346 28.0216 17.16 27.9897C17.6691 27.3852 18.0128 26.5993 18.1878 25.6352C18.2673 25.2025 18.3118 24.7316 18.3214 24.2225C18.3246 24.2097 18.3246 24.1938 18.3214 24.1811C18.3278 24.1047 18.3278 24.0284 18.3278 23.9488C18.3278 23.5129 18.2991 23.0643 18.2323 22.6029C18.21 22.4057 18.1782 22.2084 18.14 22.0079C18.0159 21.3366 17.8282 20.6429 17.5768 19.9238L19.4573 18.8516C19.9155 20.0257 20.2591 21.1584 20.4882 22.2497C20.7205 23.3411 20.835 24.3911 20.835 25.3966Z" stroke="black"/>
<path d="M22.1609 9.3125L17.1527 12.1666L10.7891 15.3484L15.7972 12.4943L16.9968 11.8961L22.1609 9.3125Z" stroke="black"/>
<path d="M10.416 16.2578L8.53552 17.3269L2.17188 20.5087L4.05234 19.4396L8.49416 17.2187L10.416 16.2578Z" stroke="black"/>
<path d="M10.4192 16.2569L8.49741 17.2178L4.0556 19.4388C3.80423 18.7197 3.61651 18.0229 3.49241 17.3515C3.36514 16.6802 3.30469 16.0342 3.30469 15.4106C3.30469 12.9924 4.03332 11.3601 5.49696 10.5138C6.01878 10.2115 6.58196 10.0429 7.18332 10.0015C7.98514 9.94742 8.86014 10.1288 9.80832 10.5424C9.72878 10.9783 9.68423 11.4492 9.67469 11.9583L9.03514 12.3242L9.7606 13.5778C9.78605 13.7719 9.81787 13.9692 9.85605 14.1697C9.98014 14.8411 10.1679 15.5378 10.4192 16.2569Z" stroke="black"/>
<path d="M22.1609 9.3137L16.9968 11.8973L15.7972 12.4955L12.6122 7.00051L10.8272 3.91733L10.7891 3.8537L17.1527 0.671875L22.1609 9.3137Z" stroke="black"/>
<path d="M15.796 12.4934L10.7878 15.3475L9.76006 13.5784L9.0346 12.3247L9.67415 11.9588L11.036 11.1825L10.8196 11.0552C10.4728 10.8547 10.1355 10.6829 9.80778 10.5429C8.8596 10.1293 7.9846 9.94793 7.18278 10.002C6.58142 10.0434 6.01824 10.212 5.49642 10.5143C4.03278 11.3607 3.30415 12.9929 3.30415 15.4111C3.30415 16.0347 3.3646 16.6807 3.49188 17.352C3.61597 18.0234 3.80369 18.7202 4.05506 19.4393L2.1746 20.5084C1.71642 19.3343 1.37278 18.2016 1.14369 17.1102C0.91142 16.0188 0.796875 14.972 0.796875 13.9666C0.796875 10.7561 1.76733 8.58611 3.71142 7.45338C3.88642 7.35156 4.06142 7.26247 4.24278 7.18293C5.31187 6.7152 6.50187 6.63247 7.81278 6.93474C8.75142 7.15111 9.75369 7.56793 10.8196 8.18202L10.8355 8.19156L11.036 8.30611L10.9151 8.09929L9.11415 4.99065L9.0346 4.85065L9.9446 4.33202L10.7878 3.85156L10.826 3.9152L12.611 6.99838L15.796 12.4934Z" stroke="black"/>
<path d="M11.0354 8.31003L10.8349 8.19548L10.819 8.18594C9.7531 7.57185 8.75082 7.15503 7.81219 6.93866C6.50128 6.63639 5.31128 6.71912 4.24219 7.18685L9.94401 4.33594L9.03401 4.85457L9.11355 4.99457L10.9145 8.10321L11.0354 8.31003Z" stroke="black"/>
<path d="M27.2032 22.2169C27.2032 25.4273 26.2327 27.5973 24.2886 28.7269C24.1041 28.8351 23.9195 28.9305 23.7254 29.0101L23.6968 29.0228L17.9854 31.8896L17.9759 31.896L17.6641 32.0519C17.7532 32.0073 17.8391 31.9596 17.925 31.9087C18.065 31.826 18.1986 31.7401 18.3291 31.6478C18.5263 31.5078 18.7109 31.3582 18.8859 31.1896C19.4395 30.6678 19.8722 30.0187 20.1872 29.2455C20.5468 28.3801 20.7568 27.3587 20.8172 26.1782C20.8332 25.9269 20.8395 25.666 20.8395 25.3987C20.8395 24.3932 20.725 23.3432 20.4927 22.2519C20.2636 21.1605 19.92 20.0278 19.4618 18.8537L25.8254 15.6719C26.2836 16.846 26.6272 17.9787 26.8563 19.0701C27.0886 20.1614 27.2032 21.2114 27.2032 22.2169Z" stroke="black"/>
<path d="M16.892 32.3656L12.6029 34.5101L10.6016 31.0547L10.8211 31.182C13.1407 32.5183 15.1643 32.9161 16.892 32.3656Z" stroke="black"/>
<path d="M18.327 24.1797C18.327 24.1797 18.3302 24.2083 18.327 24.2211L16.9652 24.9974L10.6016 28.1792L12.6029 27.037C12.6411 27.037 13.1247 26.7983 13.812 26.4579C15.1579 25.7897 17.277 24.7142 18.327 24.1797Z" stroke="black"/>
<path d="M18.1934 25.6364C18.0184 26.6005 17.6747 27.3864 17.1657 27.9909C17.1402 28.0227 17.1147 28.0514 17.0861 28.0832C16.8157 28.3855 16.5007 28.64 16.1443 28.8468C15.8993 28.9868 15.6479 29.1014 15.387 29.1809C14.0825 29.6041 12.5616 29.3114 10.8211 28.3059L10.6016 28.1818L16.9652 25L17.1847 25.1241C17.5284 25.3245 17.8657 25.4932 18.1934 25.6364Z" stroke="black"/>
</g>
<defs>
<clipPath id="clip0_577_1370">
<rect width="28" height="36.2727" fill="white"/>
</clipPath>
</defs>
</svg>
