<svg width="24" height="32" viewBox="0 0 24 32" fill="none" xmlns="http://www.w3.org/2000/svg">
<g clip-path="url(#clip0_577_1356)">
<path d="M15.7114 20.5243C15.7114 20.5925 15.7114 20.6579 15.706 20.7234C14.806 21.1816 12.9896 22.1034 11.836 22.6761C11.2469 22.9679 10.8323 23.1697 10.7996 23.1725L9.29688 20.5788L14.7514 17.8516L15.6296 19.3707C15.6869 19.7661 15.7114 20.1507 15.7114 20.5243Z" stroke="black"/>
<path d="M15.406 27.3359L14.7514 27.7096L9.29688 30.4368L10.7996 29.5778L14.476 27.7396C14.5578 27.715 14.6396 27.6878 14.7187 27.6523C14.8632 27.6032 15.0023 27.5405 15.1387 27.4696L15.406 27.3359Z" stroke="black"/>
<path d="M17.8603 21.7662C17.8603 21.9953 17.8548 22.219 17.8412 22.4344C17.7894 23.4463 17.6094 24.3217 17.3012 25.0635C17.0312 25.7263 16.6603 26.2826 16.1857 26.7299C16.0357 26.8744 15.8775 27.0026 15.7085 27.1226C15.5966 27.2017 15.4821 27.2753 15.3621 27.3462C15.2885 27.3899 15.2148 27.4308 15.1385 27.469C15.0021 27.5399 14.863 27.6026 14.7185 27.6517C14.6394 27.6872 14.5575 27.7144 14.4757 27.739C12.9948 28.2108 11.2603 27.8699 9.27209 26.7244L9.08391 26.6153L10.7994 29.5772L9.29663 30.4362L5.00391 23.029L9.29663 20.5799L10.7994 23.1735L9.08391 24.1526L9.27209 24.259C10.7639 25.1208 12.0675 25.3717 13.1857 25.009C13.4094 24.9408 13.6248 24.8426 13.8348 24.7226C14.1403 24.5453 14.4103 24.3272 14.6421 24.0681C14.6666 24.0408 14.6885 24.0162 14.7103 23.989C15.1466 23.4708 15.4412 22.7972 15.5912 21.9708C15.6594 21.5999 15.6975 21.1963 15.7057 20.7599C15.7085 20.749 15.7085 20.7353 15.7057 20.7244C15.7112 20.659 15.7112 20.5935 15.7112 20.5253C15.7112 20.1517 15.6866 19.7672 15.6294 19.3717C15.6103 19.2026 15.583 19.0335 15.5503 18.8617C15.4439 18.2863 15.283 17.6917 15.0675 17.0753L16.6794 16.1562C17.0721 17.1626 17.3666 18.1335 17.563 19.069C17.7621 20.0044 17.8603 20.9044 17.8603 21.7662Z" stroke="black"/>
<path d="M18.9934 7.98438L14.7006 10.4307L9.24609 13.158L13.5388 10.7116L14.567 10.1989L18.9934 7.98438Z" stroke="black"/>
<path d="M8.92966 13.9375L7.31784 14.8539L1.86328 17.5811L3.47511 16.6648L7.28238 14.7611L8.92966 13.9375Z" stroke="black"/>
<path d="M8.93021 13.9323L7.28294 14.7559L3.47567 16.6596C3.26021 16.0432 3.0993 15.4459 2.99294 14.8705C2.88385 14.295 2.83203 13.7414 2.83203 13.2068C2.83203 11.1341 3.45658 9.73501 4.71112 9.00956C5.15839 8.75047 5.64112 8.60595 6.15658 8.57049C6.84385 8.52413 7.59385 8.67956 8.40658 9.0341C8.33839 9.40774 8.30021 9.8114 8.29203 10.2478L7.74385 10.5614L8.36567 11.6359C8.38749 11.8023 8.41476 11.9714 8.44749 12.1432C8.55385 12.7187 8.71476 13.3159 8.93021 13.9323Z" stroke="black"/>
<path d="M18.9934 7.9854L14.567 10.1999L13.5388 10.7127L10.8088 6.00267L9.27882 3.35995L9.24609 3.3054L14.7006 0.578125L18.9934 7.9854Z" stroke="black"/>
<path d="M13.54 10.7041L9.24723 13.1505L8.36632 11.6341L7.7445 10.5596L8.29268 10.246L9.45996 9.58051L9.2745 9.47142C8.97723 9.2996 8.68814 9.15233 8.40723 9.03233C7.5945 8.67778 6.8445 8.52233 6.15723 8.56869C5.64178 8.60415 5.15905 8.74869 4.71178 9.00778C3.45723 9.73324 2.83268 11.1323 2.83268 13.2051C2.83268 13.7396 2.8845 14.2932 2.99359 14.8687C3.09996 15.4441 3.26087 16.0414 3.47632 16.6578L1.8645 17.5741C1.47178 16.5678 1.17723 15.5969 0.980866 14.6614C0.781776 13.726 0.683594 12.8287 0.683594 11.9669C0.683594 9.21506 1.51541 7.35506 3.18178 6.38415C3.33178 6.29687 3.48178 6.22051 3.63723 6.15233C4.55359 5.75142 5.57359 5.68051 6.69723 5.9396C7.50178 6.12506 8.36087 6.48233 9.2745 7.00869L9.28814 7.01687L9.45996 7.11506L9.35632 6.93778L7.81268 4.27324L7.7445 4.15324L8.5245 3.70869L9.24723 3.29688L9.27996 3.35142L10.81 5.99415L13.54 10.7041Z" stroke="black"/>
<path d="M9.45945 7.12511L9.28763 7.02693L9.27399 7.01875C8.36035 6.49239 7.50126 6.13511 6.69672 5.94966C5.57308 5.69057 4.55308 5.76148 3.63672 6.16239L8.52399 3.71875L7.74399 4.1633L7.81217 4.2833L9.35581 6.94784L9.45945 7.12511Z" stroke="black"/>
<path d="M23.317 19.0397C23.317 21.7915 22.4852 23.6515 20.8188 24.6197C20.6606 24.7124 20.5024 24.7942 20.3361 24.8624L20.3115 24.8733L15.4161 27.3306L15.4079 27.3361L15.1406 27.4697C15.217 27.4315 15.2906 27.3906 15.3643 27.347C15.4843 27.276 15.5988 27.2024 15.7106 27.1233C15.8797 27.0033 16.0379 26.8751 16.1879 26.7306C16.6624 26.2833 17.0334 25.727 17.3034 25.0642C17.6115 24.3224 17.7915 23.447 17.8434 22.4351C17.857 22.2197 17.8624 21.996 17.8624 21.767C17.8624 20.9051 17.7643 20.0051 17.5652 19.0697C17.3688 18.1342 17.0743 17.1633 16.6815 16.157L22.1361 13.4297C22.5288 14.4361 22.8234 15.407 23.0197 16.3424C23.2188 17.2779 23.317 18.1779 23.317 19.0397Z" stroke="black"/>
<path d="M14.4778 27.7408L10.8014 29.579L9.08594 26.6172L9.27412 26.7263C11.2623 27.8717 12.9968 28.2126 14.4778 27.7408Z" stroke="black"/>
<path d="M15.7078 20.7188C15.7078 20.7188 15.7105 20.7433 15.7078 20.7542L14.5405 21.4197L9.08594 24.1469L10.8014 23.1678C10.8341 23.1678 11.2487 22.9633 11.8378 22.6715C12.9914 22.0988 14.8078 21.1769 15.7078 20.7188Z" stroke="black"/>
<path d="M15.5932 21.9673C15.4432 22.7937 15.1487 23.4673 14.7123 23.9855C14.6905 24.0128 14.6687 24.0373 14.6441 24.0646C14.4123 24.3237 14.1423 24.5419 13.8368 24.7191C13.6268 24.8391 13.4114 24.9373 13.1878 25.0055C12.0696 25.3682 10.7659 25.1173 9.27412 24.2555L9.08594 24.1491L14.5405 21.4219L14.7287 21.5282C15.0232 21.7001 15.3123 21.8446 15.5932 21.9673Z" stroke="black"/>
</g>
<defs>
<clipPath id="clip0_577_1356">
<rect width="24" height="31.0909" fill="white"/>
</clipPath>
</defs>
</svg>
