<svg width="32" height="46" viewBox="0 0 32 46" fill="none" xmlns="http://www.w3.org/2000/svg">
<g clip-path="url(#clip0_577_1384)">
<path d="M21.4287 17.3716V26.4205C21.4287 26.6659 21.4217 26.9112 21.411 27.153C21.4004 27.3948 21.3861 27.6295 21.3648 27.8641C21.1763 27.7077 20.9808 27.5619 20.7852 27.4232C20.7781 27.4161 20.7746 27.4125 20.7675 27.409C20.5612 27.2668 20.3514 27.1316 20.1345 27.0072C18.3461 25.9761 16.8243 25.8125 15.5621 26.5201C14.8296 26.929 14.3105 27.5726 14.0083 28.4437C13.7843 29.073 13.6741 29.8232 13.6741 30.6943V36.9983C13.2617 37.009 12.8421 36.9805 12.4119 36.9201C11.9817 36.8561 11.5408 36.753 11.0857 36.6179C8.09191 34.0223 5.62076 30.6232 3.67232 26.4205C1.72031 22.2179 0.746094 18.2356 0.746094 14.4774V5.43213L7.85721 6.47743L11.0857 6.95032L21.4287 17.3716Z" stroke="black"/>
<path d="M31.1267 33.1118V40.5287L24.0156 44.0842V36.6673L31.1267 33.1118Z" stroke="black"/>
<path d="M31.124 33.1085L24.0129 36.664L22.7188 35.9174L23.3695 35.5938L29.8299 32.3618L31.124 33.1085Z" stroke="black"/>
<path d="M17.5484 31.5415V32.9318L16.2578 32.1851L16.9049 31.8615L17.5484 31.5415Z" stroke="black"/>
<path d="M20.7869 27.4228V28.5534L18.4722 29.7125L18.3122 29.7908C17.8038 30.0788 17.5513 30.6334 17.5513 31.4476V31.5401L16.9077 31.8601L16.2607 32.1836V35.7072L13.6758 36.9978V30.6939C13.6758 29.8228 13.786 29.0725 14.01 28.4432C14.3122 27.5721 14.8313 26.9285 15.5637 26.5196C16.8259 25.8121 18.3477 25.9756 20.1362 27.0068C20.3531 27.1312 20.5629 27.2663 20.7691 27.4085C20.7762 27.4121 20.7798 27.4156 20.7869 27.4228Z" stroke="black"/>
<path d="M28.5423 13.8149V22.8638C28.5423 23.1092 28.5353 23.3545 28.5246 23.5963C28.5139 23.8381 28.4996 24.0728 28.4783 24.3074L21.3672 27.863C21.3885 27.6283 21.4028 27.3936 21.4135 27.1519C21.4241 26.9101 21.4312 26.6647 21.4312 26.4194V17.3705L28.5423 13.8149Z" stroke="black"/>
<path d="M18.1968 3.39563L11.0857 6.95119L7.85721 6.4783L0.746094 5.433L7.85721 1.87744L18.1968 3.39563Z" stroke="black"/>
<path d="M28.5401 13.8144L21.429 17.37L11.0859 6.94863L18.197 3.39307L28.5401 13.8144Z" stroke="black"/>
<path d="M22.7182 35.9157V34.433C22.7182 33.6686 22.4977 32.8828 22.0533 32.0686C22.0249 32.0117 21.9929 31.9548 21.9609 31.8979C21.616 31.3041 21.2249 30.817 20.784 30.4401C20.6524 30.3228 20.5137 30.2197 20.3751 30.1237C20.2969 30.0704 20.2151 30.0206 20.1333 29.9743C19.4969 29.6046 18.9422 29.5192 18.4693 29.7112L18.3094 29.7895C17.8009 30.0775 17.5484 30.6321 17.5484 31.4463V32.929L16.2578 32.1824V39.5992L24.0124 44.0792V36.6623L22.7182 35.9157ZM21.4275 35.169L19.5253 34.0703L18.8427 33.6757V32.193C18.8427 31.7734 18.9671 31.4925 19.2124 31.3503C19.4613 31.2081 19.7671 31.2437 20.1333 31.457C20.3751 31.5957 20.5956 31.7841 20.784 32.0188C20.88 32.1397 20.9725 32.2712 21.0543 32.4134C21.0791 32.4526 21.1004 32.4953 21.1218 32.5344C21.3244 32.9219 21.4275 33.3059 21.4275 33.6864V35.169Z" stroke="black"/>
<path d="M21.4286 33.6857V35.1683L19.5264 34.0697L18.8438 33.675L19.4837 33.355L20.7851 32.7043L21.1228 32.5337C21.3255 32.9212 21.4286 33.3052 21.4286 33.6857Z" stroke="black"/>
<path d="M21.1228 32.5374L20.7851 32.7081L19.4837 33.3587L18.8438 33.6787V32.1961C18.8438 31.7765 18.9681 31.4956 19.2135 31.3534C19.4623 31.2112 19.7682 31.2467 20.1344 31.4601C20.3762 31.5987 20.5966 31.7872 20.7851 32.0218C20.8811 32.1427 20.9735 32.2743 21.0553 32.4165C21.0802 32.4556 21.1015 32.4983 21.1228 32.5374Z" stroke="black"/>
<path d="M29.8326 30.8789V32.3616L23.3722 35.5936L22.7215 35.9172V34.4345C22.7215 33.6701 22.501 32.8843 22.0566 32.0701C22.0281 32.0132 21.9961 31.9563 21.9641 31.8994C21.6193 31.3056 21.2282 30.8185 20.7873 30.4416C20.6558 30.3243 20.5171 30.2212 20.3784 30.1252C20.3002 30.0718 20.2184 30.0221 20.1366 29.9758C19.5002 29.6061 18.9455 29.5207 18.4727 29.7127L20.7873 28.5536L25.4238 26.2354C25.9287 25.9474 26.5366 26.0078 27.2477 26.4203C27.9588 26.8292 28.5668 27.4727 29.0753 28.3438C29.5801 29.2185 29.8326 30.0612 29.8326 30.8789Z" stroke="black"/>
</g>
<defs>
<clipPath id="clip0_577_1384">
<rect width="32" height="44.0889" fill="white" transform="translate(0 0.955566)"/>
</clipPath>
</defs>
</svg>
