<svg width="40" height="34" viewBox="0 0 40 34" fill="none" xmlns="http://www.w3.org/2000/svg">
<g clip-path="url(#clip0_577_1414)">
<path d="M24.0703 32.4522C24.2752 32.3644 24.4736 32.2668 24.6622 32.1562L24.0703 32.4522Z" stroke="black"/>
<path d="M27.9922 23.1458L27.7775 23.0222C27.423 19.8384 26.3077 16.6807 24.415 13.5523C24.3044 13.3669 24.1906 13.1815 24.0735 12.9962C24.0605 12.9734 24.0442 12.9506 24.0312 12.9311C23.2637 11.7246 22.4475 10.6352 21.5825 9.65307C21.4199 9.4677 21.254 9.28559 21.0882 9.10998C20.7434 8.7425 20.3922 8.39453 20.0345 8.06608C18.9808 7.09047 17.8621 6.2612 16.6816 5.57827C15.3255 4.79778 14.0507 4.30347 12.8605 4.10185C11.5694 3.87746 10.3792 3.99778 9.28649 4.45957C9.21495 4.48884 9.14662 4.52136 9.07833 4.55388L9.06538 4.56039C8.86701 4.65469 8.67514 4.75876 8.48977 4.87908C7.97921 5.19128 7.53364 5.58803 7.15641 6.05957C6.32714 7.08071 5.80353 8.46282 5.58239 10.2059L0.652344 7.36039V11.0384L5.58239 13.884C5.95638 17.2563 7.19218 20.5994 9.28649 23.91C11.3841 27.2205 13.8491 29.6921 16.6816 31.3279C19.5109 32.9604 21.9759 33.3344 24.0735 32.4466L24.6654 32.1506C25.6865 31.575 26.467 30.71 27.0036 29.5523C27.3808 28.7425 27.6377 27.7929 27.7775 26.7002L31.3775 28.7783L32.7076 29.5458V25.8677L27.9922 23.1458ZM21.4881 27.6661L11.8719 22.1149V12.9181L12.571 13.3214L13.4751 13.8449V12.0043C13.4751 10.9929 13.7873 10.3067 14.415 9.949C15.0426 9.59128 15.7971 9.66933 16.6816 10.1766C17.0068 10.362 17.3158 10.5897 17.602 10.8531C17.8101 11.0449 18.0084 11.2531 18.1971 11.484C18.2588 11.5555 18.3174 11.6303 18.3759 11.7084C18.5841 11.988 18.7825 12.2905 18.9646 12.6222C19.5662 13.7018 19.8718 14.7685 19.8848 15.8189V17.5458L21.4881 18.4693V27.6661Z" stroke="black"/>
<path d="M21.4867 18.4677V19.8011L20.69 20.1978L17.5387 21.7751C17.7663 21.6482 17.8802 21.3816 17.8802 20.9848C17.8802 20.5881 17.7663 20.1913 17.5387 19.8011C17.4574 19.6612 17.3696 19.5312 17.2721 19.4141C17.0997 19.206 16.9013 19.0401 16.6802 18.91C16.368 18.7312 16.1014 18.6856 15.8867 18.7734L18.3745 17.5279L19.8834 16.7734V17.5442L21.4867 18.4677Z" stroke="black"/>
<path d="M19.8787 15.8174L18.3697 16.5719L18.2754 16.6174V14.78C18.2754 14.2564 18.1226 13.7329 17.8169 13.2028C17.5535 12.7507 17.238 12.3963 16.8706 12.1426C16.8088 12.0971 16.7437 12.0548 16.6754 12.0158C16.2657 11.7784 15.9177 11.7199 15.625 11.8369L17.5958 10.8516C17.8039 11.0434 18.0022 11.2516 18.1908 11.4825C18.2526 11.554 18.3112 11.6288 18.3697 11.7068C18.5778 11.9865 18.7762 12.289 18.9583 12.6207C19.56 13.7003 19.8657 14.767 19.8787 15.8174Z" stroke="black"/>
<path d="M21.4874 20.6617V27.6698L11.8711 22.1186L15.5524 20.2779L15.5849 20.2617C15.5979 20.3137 15.6175 20.369 15.6402 20.421C15.689 20.5446 15.7475 20.6649 15.819 20.7885C15.9361 20.9901 16.0662 21.1657 16.2158 21.3121C16.3557 21.4584 16.5117 21.5787 16.6809 21.6763C17.0256 21.8747 17.315 21.9104 17.5394 21.7804L20.6906 20.2031L21.4874 20.6617Z" stroke="black"/>
<path d="M18.3713 16.5772V17.5333L15.8835 18.7788L15.8152 18.8113C15.5875 18.9381 15.4737 19.2048 15.4737 19.6015C15.4737 19.8227 15.5094 20.0438 15.581 20.2617L15.5485 20.278L11.8672 22.1186V12.9219L12.5663 13.3251L13.4704 13.8487L15.0737 13.0487V14.7723L18.2769 16.6227L18.3713 16.5772Z" stroke="black"/>
<path d="M17.5995 10.8513L15.6288 11.8367L15.5345 11.8822C15.2288 12.0578 15.076 12.4058 15.076 12.9294V13.0432L13.4727 13.8432V12.0025C13.4727 10.9912 13.7849 10.305 14.4126 9.94725C15.0402 9.58953 15.7946 9.66758 16.6792 10.1749C17.0044 10.3603 17.3134 10.5879 17.5995 10.8513Z" stroke="black"/>
<path d="M18.2774 14.7828V16.6202L15.0742 14.7697V12.9323C15.0742 12.4088 15.227 12.0608 15.5327 11.8852L15.627 11.8397C15.9197 11.7226 16.2677 11.7811 16.6774 12.0185C16.7457 12.0576 16.8108 12.0998 16.8726 12.1454C17.2401 12.399 17.5555 12.7535 17.8189 13.2055C18.1246 13.7356 18.2774 14.2592 18.2774 14.7828Z" stroke="black"/>
<path d="M31.3723 28.7811C31.1219 28.9405 30.8552 29.0771 30.5723 29.1974L24.6602 32.1535C25.6813 31.5779 26.4617 30.7129 26.9983 29.5552C27.3756 28.7454 27.6324 27.7958 27.7723 26.7031L31.3723 28.7811Z" stroke="black"/>
<path d="M39.2117 22.619L35.797 24.3263L33.8913 25.2759V25.2791L32.7076 25.871L27.9922 23.149V22.9182L34.2783 19.7734L39.2117 22.619Z" stroke="black"/>
<path d="M34.2775 19.7734L27.9881 22.9182L27.7734 23.0255C27.4189 19.8417 26.3036 16.684 24.4109 13.5556C24.3003 13.3702 24.1864 13.1848 24.0694 12.9995C24.0564 12.9767 24.0401 12.9539 24.0271 12.9344C23.2596 11.7279 22.4434 10.6385 21.5783 9.65636C21.4157 9.471 21.2499 9.28888 21.084 9.11328C20.7393 8.7458 20.3881 8.39783 20.0304 8.06937C18.9767 7.09376 17.858 6.26449 16.6775 5.58157C15.3214 4.80108 14.0466 4.30677 12.8564 4.10514C11.5653 3.88075 10.3751 4.00108 9.28238 4.46287C9.21084 4.49214 9.14251 4.52466 9.07422 4.55718L15.1621 1.52303C15.3605 1.40595 15.5686 1.30189 15.7864 1.21083C17.884 0.323025 20.349 0.697008 23.1816 2.32953C26.0108 3.96531 28.4759 6.43685 30.5734 9.74742C32.671 13.058 33.9035 16.4011 34.2775 19.7734Z" stroke="black"/>
<path d="M8.48977 4.88011C7.97921 5.1923 7.53364 5.58905 7.15641 6.06059C6.32714 7.08173 5.80353 8.46385 5.58239 10.2069L0.652344 7.36141L7.15641 4.10938L8.48977 4.88011Z" stroke="black"/>
<path d="M17.8759 20.9891C17.8759 21.3859 17.762 21.6525 17.5344 21.7794C17.31 21.9095 17.0206 21.8737 16.6759 21.6753C16.5068 21.5777 16.3507 21.4574 16.2109 21.3111C16.0613 21.1647 15.9312 20.9891 15.8141 20.7875C15.7426 20.6639 15.684 20.5436 15.6353 20.42C15.6125 20.368 15.5929 20.3127 15.5799 20.2607C15.5084 20.0428 15.4727 19.8216 15.4727 19.6005C15.4727 19.2038 15.5865 18.9371 15.8141 18.8103L15.8824 18.7777C16.097 18.6899 16.3637 18.7355 16.6759 18.9143C16.897 19.0444 17.0954 19.2103 17.2678 19.4184C17.3653 19.5355 17.4531 19.6655 17.5344 19.8054C17.762 20.1956 17.8759 20.5891 17.8759 20.9891Z" stroke="black"/>
<path d="M39.2111 22.6172V26.2952L32.707 29.5473V25.8692L33.8908 25.2774V25.2741L35.7965 24.3245L39.2111 22.6172Z" stroke="black"/>
</g>
<defs>
<clipPath id="clip0_577_1414">
<rect width="40" height="33.8211" fill="white"/>
</clipPath>
</defs>
</svg>
