<svg width="32" height="41" viewBox="0 0 32 41" fill="none" xmlns="http://www.w3.org/2000/svg">
<g clip-path="url(#clip0_577_1397)">
<path d="M9.83594 16.9297C9.83594 16.9495 9.83927 16.9693 9.84257 16.9891L9.86236 16.9759L9.83594 16.9297Z" stroke="black"/>
<path d="M24.5261 31.354C24.5261 32.0765 24.4832 32.7528 24.3875 33.3862C24.2424 34.4089 23.9785 35.3227 23.5925 36.1211C23.5529 36.2035 23.5133 36.286 23.4704 36.3685C22.8634 37.5396 22.0585 38.4105 21.0589 38.978C19.9933 39.5883 18.7364 39.8324 17.2947 39.7136C15.8531 39.5949 14.3125 39.0604 12.6729 38.1136C11.03 37.1668 9.48937 35.9198 8.04772 34.3726C6.60607 32.8287 5.3492 31.133 4.28363 29.2922C3.21806 27.4513 2.3735 25.5247 1.75 23.5091C1.12649 21.4967 0.816406 19.547 0.816406 17.6666V17.053C0.816406 16.8485 0.836177 16.6571 0.875765 16.4757L3.18835 18.6266V19.0357C3.18835 22.074 4.10549 25.1784 5.94301 28.3454C7.78054 31.5157 10.0238 33.8646 12.6729 35.3953C15.3187 36.9227 17.5619 37.1635 19.3995 36.1145C19.7558 35.9099 20.0791 35.6691 20.3628 35.392C20.9632 34.8147 21.4118 34.0757 21.7055 33.1718C21.9232 32.5285 22.0584 31.806 22.1178 30.9978C22.1343 30.7965 22.1475 30.5887 22.1508 30.3742C22.1541 30.2456 22.1574 30.1169 22.1574 29.985C22.1574 29.0811 22.0749 28.1738 21.91 27.26C21.5306 25.0992 20.6927 22.9054 19.3995 20.6753C19.2741 20.4576 19.1455 20.2431 19.0135 20.032C19.0036 20.0155 18.9937 20.0023 18.9838 19.9858C17.8688 18.1945 16.6119 16.6835 15.2164 15.4596C14.781 15.0736 14.329 14.7173 13.8638 14.394C13.8044 14.3479 13.7451 14.305 13.6824 14.2654C13.3525 14.0378 13.016 13.8266 12.6729 13.6287L12.3166 13.4208L12.1912 12.8897L11.604 10.3594C11.7822 10.4155 11.9603 10.4947 12.1384 10.5969L12.6729 10.907C13.8209 11.5701 14.9195 12.3783 15.9685 13.3383C16.1896 13.5363 16.4073 13.7441 16.6218 13.9586C16.7999 14.1301 16.9748 14.3115 17.1496 14.493C17.1958 14.5425 17.2452 14.5953 17.2947 14.648C18.7364 16.1953 19.9933 17.8877 21.0589 19.7285C22.1278 21.5693 22.9723 23.4959 23.5925 25.5116C23.6222 25.6072 23.6518 25.6996 23.6782 25.7952C24.084 27.161 24.3413 28.5004 24.4601 29.8068C24.503 30.328 24.5261 30.8427 24.5261 31.354Z" stroke="black"/>
<path d="M13.2634 22.8468L11.8052 23.6782L10.9212 24.1829L9.78958 22.2299L8.19951 19.4885L8.08404 19.2839L7.44401 18.1821L6.68855 16.879L5.85394 15.4406L5.07865 17.6806L4.3727 19.7194L4.02961 18.2085L3.35329 15.2361L0.816406 4.0625L10.1096 12.6266L11.7591 14.1442L12.6729 14.9887L11.5447 14.7644L10.5517 14.5697L8.54587 14.1738L8.19621 14.1046L9.10343 15.6683L9.83247 16.9285C9.83247 16.9483 9.83576 16.9681 9.83906 16.9879L9.85889 16.9747L10.6176 18.2811L12.2045 21.0225L13.2634 22.8468Z" stroke="black"/>
<path d="M19.787 28.619C19.787 28.972 19.7706 29.3085 19.7343 29.6252C19.6386 30.5522 19.3978 31.3209 19.0151 31.9411C18.6852 32.4722 18.2497 32.8912 17.712 33.2014C17.5536 33.2938 17.3887 33.3729 17.2204 33.4356C15.9371 33.9371 14.4229 33.683 12.6744 32.6735C10.7577 31.565 9.11488 29.8727 7.75241 27.5865C6.38993 25.3036 5.65756 23.0471 5.55859 20.8104L8.04928 23.0998C8.3066 24.4722 8.86083 25.7951 9.70866 27.0685C10.5598 28.3419 11.5462 29.3019 12.6744 29.9518C13.2056 30.2586 13.707 30.4598 14.1722 30.5489C14.8551 30.6908 15.472 30.6017 16.0229 30.2883C16.1714 30.2026 16.3066 30.1069 16.432 29.9947C16.9466 29.5427 17.26 28.8764 17.3689 27.9988C17.4019 27.7646 17.4151 27.5139 17.4151 27.2499C17.4151 26.4087 17.2732 25.5543 16.9829 24.6833C16.8279 24.2116 16.6299 23.7365 16.3924 23.2582C16.145 22.76 15.8712 22.2916 15.5743 21.8561C15.5446 21.8132 15.5149 21.7737 15.4885 21.7341C15.3235 21.4998 15.152 21.2755 14.9706 21.0578C14.6835 20.7147 14.38 20.3914 14.0567 20.0978C13.9611 20.0054 13.8654 19.9196 13.7697 19.8372L13.5289 18.7716L13.0275 16.5547C14.6473 17.584 16.0493 19.019 17.2369 20.8598C17.2666 20.8994 17.293 20.9423 17.3194 20.9819C17.4943 21.2623 17.6658 21.546 17.8307 21.8429C18.7874 23.5419 19.3944 25.2112 19.6485 26.8508C19.7408 27.4446 19.787 28.0351 19.787 28.619Z" stroke="black"/>
<path d="M13.6843 14.2656L13.7832 14.4339L13.8657 14.3943C13.8063 14.3481 13.747 14.3052 13.6843 14.2656ZM27.1573 35.93C27.3288 35.8574 27.4971 35.7717 27.6587 35.6793L27.1573 35.93ZM8.08594 19.2834C8.10243 19.3625 8.12553 19.4384 8.14532 19.5176L8.2014 19.4879L8.08594 19.2834Z" stroke="black"/>
<path d="M21.7085 33.1702C21.4149 34.0742 20.9663 34.8131 20.3659 35.3904C20.0822 35.6676 19.7588 35.9084 19.4025 36.1129C17.565 37.162 15.3217 36.9212 12.6759 35.3937C10.0269 33.863 7.7836 31.5141 5.94607 28.3438C4.10855 25.1768 3.19141 22.0725 3.19141 19.0341V18.625L4.03267 18.2061L4.37576 19.717L7.44707 18.1797L8.0871 19.2815C8.1036 19.3607 8.12666 19.4366 8.14645 19.5158L5.56009 20.809C5.65906 23.0457 6.39143 25.3022 7.75391 27.585C9.11638 29.8712 10.7592 31.5636 12.6759 32.6721C14.4244 33.6816 15.9386 33.9356 17.2219 33.4342C17.3902 33.3715 17.5551 33.2923 17.7135 33.1999L19.5807 32.2663C20.323 32.6721 21.0322 32.9756 21.7085 33.1702Z" stroke="black"/>
<path d="M13.6824 14.2605L13.7813 14.4288L12.6729 14.983L11.7591 14.1384L10.1096 12.6209L0.816406 4.05679L7.41435 0.757812L15.6387 8.33556L11.604 10.3545L12.1912 12.8848L12.3166 13.416L12.6729 13.6238C13.016 13.8217 13.3525 14.0329 13.6824 14.2605Z" stroke="black"/>
<path d="M13.8637 14.3906L13.7812 14.4302" stroke="black"/>
<path d="M4.03273 18.2067L3.19149 18.6257L0.878906 16.4748L3.35645 15.2344L4.03273 18.2067Z" stroke="black"/>
<path d="M31.1255 28.0571C31.1255 29.9409 30.8154 31.531 30.1919 32.8242C29.5717 34.1207 28.7271 35.0741 27.6583 35.6811L21.0603 38.9801C22.0599 38.4126 22.8648 37.5417 23.4718 36.3706C23.5147 36.2881 23.5544 36.2056 23.594 36.1232C23.9799 35.3248 24.2438 34.411 24.389 33.3883C24.4846 32.7549 24.5275 32.0786 24.5275 31.3561C24.5275 30.8448 24.5044 30.3301 24.4615 29.8089C24.3428 28.5025 24.0854 27.1631 23.6797 25.7973C23.6533 25.7017 23.6236 25.6093 23.594 25.5137C22.9737 23.498 22.1292 21.5714 21.0603 19.7306C19.9947 17.8897 18.7378 16.1973 17.2962 14.6501C17.2467 14.5973 17.1972 14.5446 17.151 14.4951C16.9762 14.3136 16.8013 14.1322 16.6232 13.9607C16.4088 13.7462 16.191 13.5384 15.97 13.3404C14.9209 12.3804 13.8224 11.5722 12.6743 10.9091L12.1399 10.599C11.9618 10.4968 11.7836 10.4176 11.6055 10.3615L15.6401 8.34253L18.2034 7.0625C18.3816 7.11858 18.5597 7.19779 18.7378 7.30006L19.2723 7.61016C20.9119 8.55697 22.4525 9.80394 23.8941 11.3512C25.3358 12.8984 26.5927 14.5908 27.6583 16.4316C28.7271 18.2724 29.5717 20.199 30.1919 22.2147C30.8154 24.2271 31.1255 26.1767 31.1255 28.0571Z" stroke="black"/>
<path d="M9.79114 22.2258L9.18416 22.5293L8.04928 23.0967L5.55859 20.8073L8.14499 19.5141L8.20107 19.4844L9.79114 22.2258Z" stroke="black"/>
<path d="M15.4899 21.7321L15.2656 21.8442L13.5172 22.7185L13.2664 22.8438L12.2075 21.0195L10.6207 18.2781L9.8619 16.9717L9.83547 16.9255L9.10644 15.6653L8.19922 14.1016L8.54888 14.1708L10.5547 14.5667L11.5477 14.7614L12.6759 14.9857L13.7843 14.4315L14.5662 15.784L13.0289 16.5527L13.5304 18.7696L13.7712 19.8352C13.8668 19.9176 13.9625 20.0034 14.0582 20.0958C14.3815 20.3894 14.685 20.7127 14.972 21.0558C15.1534 21.2735 15.325 21.4979 15.4899 21.7321Z" stroke="black"/>
<path d="M17.4166 27.245C17.4166 27.5089 17.4034 27.7597 17.3704 27.9939C17.2615 28.8714 16.9481 29.5378 16.4335 29.9898C16.3081 30.1019 16.1728 30.1976 16.0244 30.2834C15.4735 30.5968 14.8566 30.6858 14.1737 30.544C13.7085 30.4549 13.2071 30.2537 12.6759 29.9469C11.5477 29.297 10.5613 28.337 9.71016 27.0636C8.86233 25.7902 8.3081 24.4673 8.05078 23.0949L9.18566 22.5275L9.79264 22.224L10.9242 24.177L11.8314 23.7217L13.5799 22.8508L15.325 21.9766C15.5889 22.5803 15.9155 23.1774 16.3081 23.7646C16.5258 24.0879 16.7502 24.3947 16.9844 24.6784C17.2747 25.5493 17.4166 26.4038 17.4166 27.245Z" stroke="black"/>
<path d="M15.5734 21.8564L15.3227 21.9818L13.5775 22.856L11.8291 23.727L10.9219 24.1822L11.806 23.6775L13.2641 22.8461L13.5148 22.7208L15.2633 21.8465L15.4876 21.7344C15.514 21.774 15.5437 21.8136 15.5734 21.8564Z" stroke="black"/>
<path d="M22.1589 29.9863C22.1589 30.1183 22.1556 30.2469 22.1523 30.3756C22.149 30.59 22.1358 30.7978 22.1193 30.9991L19.5791 32.2692L17.7119 33.2028C18.2496 32.8927 18.6851 32.4737 19.015 31.9426C19.3977 31.3224 19.6385 30.5537 19.7341 29.6267C19.7704 29.31 19.7869 28.9735 19.7869 28.6205C19.7869 28.0366 19.7407 27.4461 19.6484 26.8523C19.3944 25.2127 18.7873 23.5434 17.8306 21.8444C17.6657 21.5475 17.4941 21.2638 17.3193 20.9834C17.2929 20.9438 17.2665 20.9009 17.2368 20.8614C16.0492 19.0205 14.6471 17.5855 13.0273 16.5562L14.5646 15.7875L15.2179 15.4609C16.6133 16.6849 17.8702 18.1958 18.9853 19.9871C18.9952 20.0036 19.0051 20.0168 19.015 20.0333C19.147 20.2444 19.2756 20.4589 19.401 20.6766C20.6941 22.9067 21.5321 25.1005 21.9115 27.2613C22.0764 28.1752 22.1589 29.0824 22.1589 29.9863Z" stroke="black"/>
<path d="M7.44634 18.1789L4.375 19.7163L5.08095 17.6808V17.6775L5.85624 15.4375L6.69084 16.8759L7.44634 18.1789Z" stroke="black"/>
</g>
<defs>
<clipPath id="clip0_577_1397">
<rect width="32" height="40.5773" fill="white"/>
</clipPath>
</defs>
</svg>
