<svg width="28" height="36" viewBox="0 0 28 36" fill="none" xmlns="http://www.w3.org/2000/svg">
<g clip-path="url(#clip0_577_1429)">
<path d="M17.2422 27.8464L17.3333 27.8008V27.6641C17.304 27.7259 17.2747 27.7878 17.2422 27.8464Z" stroke="black"/>
<path d="M17.2422 27.8464L17.3333 27.8008V27.6641C17.304 27.7259 17.2747 27.7878 17.2422 27.8464Z" stroke="black"/>
<path d="M10.8228 19.7197V31.0532C12.8447 31.5025 14.5312 31.0597 15.8856 29.7249C15.9345 29.6793 15.98 29.6304 16.0256 29.5816C16.5075 29.077 16.9144 28.4974 17.2433 27.843L17.3344 27.7974V27.6607C17.8228 26.6286 18.1289 25.4109 18.2591 24.0142L17.3344 23.4802L10.8228 19.7197ZM10.8228 19.7197L9.2535 18.8146L3.38649 15.4286C3.34416 15.1388 3.32466 14.9142 3.32466 14.7449V7.3216L7.33586 7.9109L9.83629 8.27881L10.8228 8.42532V19.7197ZM17.3344 11.9416L10.8228 5.37788L9.83629 5.23137L7.33586 4.86346L0.824219 3.90625V12.6579C0.824219 16.2914 1.76513 20.1397 3.65024 24.203C5.53536 28.2695 7.92838 31.5546 10.8228 34.0649C13.1084 34.7225 15.0781 34.5337 16.7353 33.4983H16.7386C17.1814 33.2183 17.5982 32.883 17.9954 32.4858C18.3991 32.0821 18.7605 31.636 19.0731 31.1509C19.7242 30.1644 20.1898 29.0118 20.4731 27.6932C20.7075 26.6351 20.8214 25.4728 20.8214 24.203V15.4546L17.3344 11.9416Z" stroke="black"/>
<path d="M9.89767 12.1715L7.68053 13.2785L3.38605 15.4273C3.34372 15.1375 3.32422 14.9129 3.32422 14.7436V7.32031L7.33541 7.90961L9.83585 8.27752V11.4878C9.83585 11.6571 9.85535 11.8817 9.89767 12.1715Z" stroke="black"/>
<path d="M10.823 12.7058V19.7189L9.25373 18.8137L3.38672 15.4277L7.6812 13.2789L9.89835 12.1719L10.823 12.7058Z" stroke="black"/>
<path d="M17.2447 27.8438C16.9158 28.4982 16.5089 29.0777 16.027 29.5824C15.9814 29.6312 15.9359 29.68 15.887 29.7256C14.5326 31.0605 12.8461 31.5033 10.8242 31.054L15.2945 28.8205L17.2447 27.8438Z" stroke="black"/>
<path d="M17.3358 23.4792V27.6597C17.3065 27.7215 17.2772 27.7834 17.2447 27.842L15.2945 28.8188L10.8242 31.0522V19.7188L17.3358 23.4792Z" stroke="black"/>
<path d="M17.3344 2.12007L12.6266 4.47402L10.8228 5.37588L9.83629 5.22937L7.33586 4.86146L0.824219 3.90425L7.33586 0.648438L17.3344 2.12007Z" stroke="black"/>
<path d="M27.3345 12.2017L20.8228 15.4576L17.3358 11.9445L10.8242 5.38081L12.628 4.47895L17.3358 2.125L27.3345 12.2017Z" stroke="black"/>
<path d="M27.3327 12.2031V20.9515C27.3327 24.585 26.3918 27.3459 24.5067 29.2343C23.8881 29.8529 23.2141 30.3282 22.4848 30.6506L22.4555 30.6636L16.7383 33.4994C17.1811 33.2227 17.5978 32.8873 17.9951 32.4901C18.3988 32.0864 18.7602 31.6403 19.0727 31.1552C19.7239 30.1687 20.1895 29.0161 20.4728 27.6975C20.7072 26.6394 20.8211 25.4771 20.8211 24.2073V15.4589L27.3327 12.2031Z" stroke="black"/>
<path d="M22.6276 30.5781L22.4844 30.6498" stroke="black"/>
<path d="M16.7337 33.5L16.4766 33.627" stroke="black"/>
</g>
<defs>
<clipPath id="clip0_577_1429">
<rect width="28" height="35.1628" fill="white"/>
</clipPath>
</defs>
</svg>
