<svg width="221" height="32" viewBox="0 0 221 32" fill="none" xmlns="http://www.w3.org/2000/svg">
<path d="M19.232 17.7213L18.9507 17.0261L18.9197 17.0386L18.89 17.0539L19.232 17.7213ZM38.6796 9.85246L38.4957 9.12535L38.4459 9.13795L38.3982 9.15722L38.6796 9.85246ZM58.1271 4.93443L57.9989 4.19545L57.9708 4.20033L57.9432 4.20732L58.1271 4.93443ZM75.1436 1.98361L75.0952 1.23517L75.0551 1.23777L75.0155 1.24463L75.1436 1.98361ZM90.337 1V0.25H90.3128L90.2886 0.251567L90.337 1ZM121.939 1L122.003 0.252706L121.971 0.25H121.939V1ZM133.486 1.98361L133.606 1.24324L133.578 1.23872L133.55 1.23631L133.486 1.98361ZM145.641 3.95082L145.816 3.22149L145.788 3.21494L145.761 3.21045L145.641 3.95082ZM162.05 7.88525L162.261 7.16575L162.243 7.16037L162.225 7.15592L162.05 7.88525ZM221 31L216.345 23.6973L212.348 31.3801L221 31ZM186.537 15.091L186.325 15.8105L186.537 15.091ZM203.741 22.0214L203.395 22.6867L203.741 22.0214ZM1.34208 27.733L19.5741 18.3888L18.89 17.0539L0.657922 26.3981L1.34208 27.733ZM19.5134 18.4166L38.9609 10.5477L38.3982 9.15722L18.9507 17.0261L19.5134 18.4166ZM38.8634 10.5796L58.3109 5.66154L57.9432 4.20732L38.4957 9.12535L38.8634 10.5796ZM58.2552 5.6734L75.2718 2.72258L75.0155 1.24463L57.9989 4.19545L58.2552 5.6734ZM75.1921 2.73204L90.3855 1.74843L90.2886 0.251567L75.0952 1.23517L75.1921 2.73204ZM90.337 1.75H107.961V0.25H90.337V1.75ZM107.961 1.75H121.939V0.25H107.961V1.75ZM121.876 1.74729L133.423 2.7309L133.55 1.23631L122.003 0.252706L121.876 1.74729ZM133.366 2.72397L145.521 4.69119L145.761 3.21045L133.606 1.24324L133.366 2.72397ZM145.466 4.68015L161.875 8.61457L162.225 7.15592L145.816 3.22149L145.466 4.68015ZM161.838 8.60474L186.325 15.8105L186.748 14.3715L162.261 7.16575L161.838 8.60474ZM203.395 22.6867L214.666 28.5502L215.358 27.2195L204.087 21.356L203.395 22.6867ZM186.325 15.8105C192.224 17.5463 197.94 19.8491 203.395 22.6867L204.087 21.356C198.546 18.4737 192.74 16.1346 186.748 14.3715L186.325 15.8105Z" fill="#DA251E"/>
</svg>
