<svg width="221" height="32" viewBox="0 0 221 32" fill="none" xmlns="http://www.w3.org/2000/svg">
<path d="M19.232 14.2787L18.9507 14.9739L18.9197 14.9614L18.89 14.9461L19.232 14.2787ZM38.6796 22.1475L38.4957 22.8747L38.4459 22.8621L38.3982 22.8428L38.6796 22.1475ZM58.1271 27.0656L57.9989 27.8045L57.9708 27.7997L57.9432 27.7927L58.1271 27.0656ZM75.1436 30.0164L75.0952 30.7648L75.0551 30.7622L75.0155 30.7554L75.1436 30.0164ZM90.337 31V31.75H90.3128L90.2886 31.7484L90.337 31ZM121.939 31L122.003 31.7473L121.971 31.75H121.939V31ZM133.486 30.0164L133.606 30.7568L133.578 30.7613L133.55 30.7637L133.486 30.0164ZM145.641 28.0492L145.816 28.7785L145.788 28.7851L145.761 28.7895L145.641 28.0492ZM162.05 24.1148L162.261 24.8342L162.243 24.8396L162.225 24.8441L162.05 24.1148ZM221 1L216.345 8.30273L212.348 0.619921L221 1ZM186.537 16.909L186.325 16.1895L186.537 16.909ZM203.741 9.97862L203.395 9.31327L203.741 9.97862ZM1.34208 4.26698L19.5741 13.6112L18.89 14.9461L0.657922 5.60187L1.34208 4.26698ZM19.5134 13.5834L38.9609 21.4523L38.3982 22.8428L18.9507 14.9739L19.5134 13.5834ZM38.8634 21.4204L58.3109 26.3385L57.9432 27.7927L38.4957 22.8747L38.8634 21.4204ZM58.2552 26.3266L75.2718 29.2774L75.0155 30.7554L57.9989 27.8045L58.2552 26.3266ZM75.1921 29.268L90.3855 30.2516L90.2886 31.7484L75.0952 30.7648L75.1921 29.268ZM90.337 30.25H107.961V31.75H90.337V30.25ZM107.961 30.25H121.939V31.75H107.961V30.25ZM121.876 30.2527L133.423 29.2691L133.55 30.7637L122.003 31.7473L121.876 30.2527ZM133.366 29.276L145.521 27.3088L145.761 28.7895L133.606 30.7568L133.366 29.276ZM145.466 27.3199L161.875 23.3854L162.225 24.8441L145.816 28.7785L145.466 27.3199ZM161.838 23.3953L186.325 16.1895L186.748 17.6285L162.261 24.8342L161.838 23.3953ZM203.395 9.31327L214.666 3.44984L215.358 4.78054L204.087 10.644L203.395 9.31327ZM186.325 16.1895C192.224 14.4537 197.94 12.1509 203.395 9.31327L204.087 10.644C198.546 13.5263 192.74 15.8654 186.748 17.6285L186.325 16.1895Z" fill="#DA251E"/>
</svg>
