<svg width="42" height="39" viewBox="0 0 42 39" fill="none" xmlns="http://www.w3.org/2000/svg">
<g clip-path="url(#clip0_577_1335)">
<rect x="20.5" y="19" width="20" height="20" rx="2" fill="#F9E2E1"/>
<path d="M35.7287 31.9428C35.734 31.8927 35.7493 31.8442 35.7737 31.8002C35.7981 31.7561 35.8311 31.7174 35.8708 31.6864C35.9105 31.6554 35.956 31.6327 36.0046 31.6197C36.0533 31.6066 36.104 31.6035 36.1539 31.6105C36.2038 31.6175 36.2517 31.6345 36.2949 31.6605C36.338 31.6864 36.3755 31.7208 36.4051 31.7615C36.4347 31.8023 36.4558 31.8485 36.4671 31.8976C36.4784 31.9467 36.4797 31.9975 36.471 32.0471L36.0773 34.848C36.0635 34.9464 36.0111 35.0353 35.9317 35.0951C35.8523 35.1549 35.7525 35.1808 35.6541 35.167L32.8532 34.7734C32.8031 34.7681 32.7546 34.7528 32.7105 34.7284C32.6665 34.704 32.6278 34.671 32.5968 34.6313C32.5658 34.5916 32.5431 34.5461 32.53 34.4975C32.517 34.4488 32.5139 34.3981 32.5209 34.3482C32.5279 34.2983 32.5449 34.2504 32.5708 34.2072C32.5967 34.1641 32.6311 34.1266 32.6719 34.097C32.7126 34.0674 32.7589 34.0463 32.808 34.035C32.857 34.0237 32.9079 34.0223 32.9575 34.0311L34.8621 34.2988L31.9463 30.4294C31.8864 30.35 31.8606 30.25 31.8744 30.1515C31.8883 30.053 31.9407 29.9641 32.0201 29.9042C32.0995 29.8444 32.1995 29.8185 32.298 29.8324C32.3965 29.8462 32.4854 29.8986 32.5453 29.978L35.4611 33.8474L35.7287 31.9428Z" fill="#DA251E"/>
</g>
<rect x="0.5" width="28" height="28" rx="4" fill="#DA251E"/>
<path d="M4 16.332V5.83203H25V22.1654H4V16.332Z" fill="#DA251E" stroke="#DA251E" stroke-width="2" stroke-linecap="round" stroke-linejoin="round"/>
<path d="M4 18.6641L8.66667 15.1641L12.1667 17.4974L19.1667 11.6641L25 16.3307" stroke="white" stroke-linecap="round" stroke-linejoin="round"/>
<path d="M9.25 12.832C10.2165 12.832 11 12.0485 11 11.082C11 10.1155 10.2165 9.33203 9.25 9.33203C8.2835 9.33203 7.5 10.1155 7.5 11.082C7.5 12.0485 8.2835 12.832 9.25 12.832Z" fill="white"/>
<path d="M4 18.6641L8.66667 15.1641L12.1667 17.4974L19.1667 11.6641L25 16.3307V22.1641H4V18.6641Z" fill="white"/>
<defs>
<clipPath id="clip0_577_1335">
<rect x="20.5" y="19" width="20" height="20" rx="2" fill="white"/>
</clipPath>
</defs>
</svg>
