<svg width="42" height="39" viewBox="0 0 42 39" fill="none" xmlns="http://www.w3.org/2000/svg">
<g clip-path="url(#clip0_577_1325)">
<rect x="20.5" y="19" width="20" height="20" rx="2" fill="#F7DCD9"/>
<path d="M35.7287 31.9428C35.734 31.8927 35.7493 31.8442 35.7737 31.8002C35.7981 31.7561 35.8311 31.7174 35.8708 31.6864C35.9105 31.6554 35.956 31.6327 36.0046 31.6197C36.0533 31.6066 36.104 31.6035 36.1539 31.6105C36.2038 31.6175 36.2517 31.6345 36.2949 31.6605C36.338 31.6864 36.3755 31.7208 36.4051 31.7615C36.4347 31.8023 36.4558 31.8485 36.4671 31.8976C36.4784 31.9467 36.4797 31.9975 36.471 32.0471L36.0773 34.848C36.0635 34.9464 36.0111 35.0353 35.9317 35.0951C35.8523 35.1549 35.7525 35.1808 35.6541 35.167L32.8532 34.7734C32.8031 34.7681 32.7546 34.7528 32.7105 34.7284C32.6665 34.704 32.6278 34.671 32.5968 34.6313C32.5658 34.5916 32.5431 34.5461 32.53 34.4975C32.517 34.4488 32.5139 34.3981 32.5209 34.3482C32.5279 34.2983 32.5449 34.2504 32.5708 34.2072C32.5967 34.1641 32.6311 34.1266 32.6719 34.097C32.7126 34.0674 32.7589 34.0463 32.808 34.035C32.857 34.0237 32.9079 34.0223 32.9575 34.0311L34.8621 34.2988L31.9463 30.4294C31.8864 30.35 31.8606 30.25 31.8744 30.1515C31.8883 30.053 31.9407 29.9641 32.0201 29.9042C32.0995 29.8444 32.1995 29.8185 32.298 29.8324C32.3965 29.8462 32.4854 29.8986 32.5453 29.978L35.4611 33.8474L35.7287 31.9428Z" fill="#C82912"/>
</g>
<g clip-path="url(#clip1_577_1325)">
<path d="M0.5 3.5C0.5 1.56701 2.06701 0 4 0H25C26.933 0 28.5 1.56701 28.5 3.5V24.5C28.5 26.433 26.933 28 25 28H4C2.06701 28 0.5 26.433 0.5 24.5V3.5Z" fill="#DF4023"/>
<path d="M0.5 21.4375H28.5V24.5C28.5 26.433 26.933 28 25 28H4C2.06701 28 0.5 26.433 0.5 24.5V21.4375Z" fill="#C82912"/>
<path d="M25 1.33866e-07C26.933 2.1836e-07 28.5 1.56701 28.5 3.5V24.6129C28.5 26.4835 26.9835 28 25.1129 28C23.3592 28 21.9375 26.5783 21.9375 24.8246V0L25 1.33866e-07Z" fill="#F85836"/>
<path d="M21.9375 24.8246C21.9375 26.5783 23.3592 28 25.1129 28C26.9835 28 28.5 26.4835 28.5 24.6129C28.5 22.8592 27.0783 21.4375 25.3246 21.4375H21.9375V24.8246Z" fill="#DF4023"/>
<path fill-rule="evenodd" clip-rule="evenodd" d="M5.96875 4.15625H12.5312C14.9475 4.15625 16.9062 6.115 16.9062 8.53125C16.9062 10.9475 14.9475 12.9062 12.5312 12.9062H8.15625V17.2812H5.96875V4.15625ZM8.15625 10.7187H12.5312C13.7394 10.7187 14.7187 9.73938 14.7187 8.53125C14.7187 7.32312 13.7394 6.34375 12.5312 6.34375H8.15625V10.7187Z" fill="white"/>
</g>
<defs>
<clipPath id="clip0_577_1325">
<rect x="20.5" y="19" width="20" height="20" rx="2" fill="white"/>
</clipPath>
<clipPath id="clip1_577_1325">
<rect width="28" height="28" fill="white" transform="translate(0.5)"/>
</clipPath>
</defs>
</svg>
