<svg width="43" height="37" viewBox="0 0 43 37" fill="none" xmlns="http://www.w3.org/2000/svg">
<g clip-path="url(#clip0_577_1284)">
<rect x="0.5" width="20" height="20" rx="2" fill="#F7DCD9"/>
<path d="M8.72875 5.94281C8.73399 5.89273 8.74927 5.84421 8.77367 5.80016C8.79808 5.75611 8.8311 5.71742 8.87078 5.68641C8.91046 5.6554 8.95597 5.6327 9.00462 5.61966C9.05326 5.60662 9.10403 5.60351 9.1539 5.61052C9.20377 5.61753 9.25171 5.63451 9.29488 5.66045C9.33804 5.68639 9.37554 5.72076 9.40513 5.76151C9.43472 5.80226 9.45581 5.84855 9.46712 5.89762C9.47843 5.94669 9.47975 5.99754 9.47099 6.04713L9.07734 8.84803C9.06345 8.94643 9.01107 9.03529 8.93171 9.0951C8.85234 9.1549 8.75249 9.18076 8.65407 9.16699L5.85317 8.77335C5.80308 8.76811 5.75457 8.75283 5.71051 8.72842C5.66646 8.70402 5.62778 8.671 5.59676 8.63132C5.56575 8.59164 5.54305 8.54612 5.53001 8.49748C5.51697 8.44884 5.51387 8.39807 5.52087 8.3482C5.52788 8.29833 5.54486 8.25038 5.57081 8.20722C5.59675 8.16406 5.63111 8.12656 5.67186 8.09697C5.71261 8.06737 5.7589 8.04629 5.80797 8.03498C5.85704 8.02366 5.90789 8.02235 5.95748 8.03111L7.86209 8.29879L4.9463 4.4294C4.88645 4.34997 4.8606 4.25002 4.87444 4.15153C4.88828 4.05304 4.94068 3.96408 5.02011 3.90423C5.09954 3.84438 5.19949 3.81853 5.29798 3.83237C5.39647 3.84621 5.48542 3.89861 5.54528 3.97804L8.46107 7.84743L8.72875 5.94281Z" fill="#C82912"/>
</g>
<g clip-path="url(#clip1_577_1284)">
<path d="M14.5 12.5C14.5 10.567 16.067 9 18 9H39C40.933 9 42.5 10.567 42.5 12.5V33.5C42.5 35.433 40.933 37 39 37H18C16.067 37 14.5 35.433 14.5 33.5V12.5Z" fill="#DF4023"/>
<path d="M14.5 30.4375H42.5V33.5C42.5 35.433 40.933 37 39 37H18C16.067 37 14.5 35.433 14.5 33.5V30.4375Z" fill="#C82912"/>
<path d="M39 9C40.933 9 42.5 10.567 42.5 12.5V33.6129C42.5 35.4835 40.9835 37 39.1129 37C37.3592 37 35.9375 35.5783 35.9375 33.8246V9L39 9Z" fill="#F85836"/>
<path d="M35.9375 33.8246C35.9375 35.5783 37.3592 37 39.1129 37C40.9835 37 42.5 35.4835 42.5 33.6129C42.5 31.8592 41.0783 30.4375 39.3246 30.4375H35.9375V33.8246Z" fill="#DF4023"/>
<path fill-rule="evenodd" clip-rule="evenodd" d="M19.9688 13.1562H26.5312C28.9475 13.1562 30.9062 15.115 30.9062 17.5312C30.9062 19.9475 28.9475 21.9062 26.5312 21.9062H22.1562V26.2812H19.9688V13.1562ZM22.1562 19.7187H26.5312C27.7394 19.7187 28.7187 18.7394 28.7187 17.5312C28.7187 16.3231 27.7394 15.3437 26.5312 15.3437H22.1562V19.7187Z" fill="white"/>
</g>
<defs>
<clipPath id="clip0_577_1284">
<rect x="0.5" width="20" height="20" rx="2" fill="white"/>
</clipPath>
<clipPath id="clip1_577_1284">
<rect width="28" height="28" fill="white" transform="translate(14.5 9)"/>
</clipPath>
</defs>
</svg>
