<svg width="42" height="39" viewBox="0 0 42 39" fill="none" xmlns="http://www.w3.org/2000/svg">
<g clip-path="url(#clip0_577_1346)">
<rect x="20.5" y="19" width="20" height="20" rx="2" fill="#D6F7EC"/>
<path d="M35.7287 31.9428C35.734 31.8927 35.7493 31.8442 35.7737 31.8002C35.7981 31.7561 35.8311 31.7174 35.8708 31.6864C35.9105 31.6554 35.956 31.6327 36.0046 31.6197C36.0533 31.6066 36.104 31.6035 36.1539 31.6105C36.2038 31.6175 36.2517 31.6345 36.2949 31.6605C36.338 31.6864 36.3755 31.7208 36.4051 31.7615C36.4347 31.8023 36.4558 31.8485 36.4671 31.8976C36.4784 31.9467 36.4797 31.9975 36.471 32.0471L36.0773 34.848C36.0635 34.9464 36.0111 35.0353 35.9317 35.0951C35.8523 35.1549 35.7525 35.1808 35.6541 35.167L32.8532 34.7734C32.8031 34.7681 32.7546 34.7528 32.7105 34.7284C32.6665 34.704 32.6278 34.671 32.5968 34.6313C32.5658 34.5916 32.5431 34.5461 32.53 34.4975C32.517 34.4488 32.5139 34.3981 32.5209 34.3482C32.5279 34.2983 32.5449 34.2504 32.5708 34.2072C32.5967 34.1641 32.6311 34.1266 32.6719 34.097C32.7126 34.0674 32.7589 34.0463 32.808 34.035C32.857 34.0237 32.9079 34.0223 32.9575 34.0311L34.8621 34.2988L31.9463 30.4294C31.8864 30.35 31.8606 30.25 31.8744 30.1515C31.8883 30.053 31.9407 29.9641 32.0201 29.9042C32.0995 29.8444 32.1995 29.8185 32.298 29.8324C32.3965 29.8462 32.4854 29.8986 32.5453 29.978L35.4611 33.8474L35.7287 31.9428Z" fill="#007D53"/>
</g>
<g clip-path="url(#clip1_577_1346)">
<path d="M0.5 3.5C0.5 1.56701 2.06701 0 4 0H25C26.933 0 28.5 1.56701 28.5 3.5V24.5C28.5 26.433 26.933 28 25 28H4C2.06701 28 0.5 26.433 0.5 24.5V3.5Z" fill="#109968"/>
<path d="M0.5 21.4375H28.5V24.5C28.5 26.433 26.933 28 25 28H4C2.06701 28 0.5 26.433 0.5 24.5V21.4375Z" fill="#007D53"/>
<path d="M25 1.33866e-07C26.933 2.1836e-07 28.5 1.56701 28.5 3.5V24.6129C28.5 26.4835 26.9835 28 25.1129 28C23.3592 28 21.9375 26.5783 21.9375 24.8246V0L25 1.33866e-07Z" fill="#38B27F"/>
<path d="M21.9375 24.8246C21.9375 26.5783 23.3592 28 25.1129 28C26.9835 28 28.5 26.4835 28.5 24.6129C28.5 22.8592 27.0783 21.4375 25.3246 21.4375H21.9375V24.8246Z" fill="#109968"/>
<path fill-rule="evenodd" clip-rule="evenodd" d="M7.72771 5.93476C8.64121 5.02329 10.0774 4.58407 11.7833 4.73097C13.6015 4.88753 14.6636 5.7217 15.2219 6.65114C15.485 7.08897 15.6148 7.5117 15.6797 7.82474C15.7124 7.98252 15.7296 8.11692 15.7387 8.21765C15.7432 8.26819 15.7457 8.31082 15.7471 8.34421C15.7478 8.36094 15.7482 8.37543 15.7485 8.38754C15.7486 8.39356 15.7487 8.39902 15.7487 8.40385L15.7488 8.41071V8.41372V8.41519C15.7488 8.41589 15.7488 8.41659 14.6551 8.41659C13.5613 8.41659 13.5613 8.41722 13.5613 8.41792V8.41918V8.42163L13.5614 8.42583C13.5614 8.42842 13.5614 8.43052 13.5614 8.43213C13.5615 8.43535 13.5616 8.43668 13.5616 8.43619C13.5615 8.43521 13.5612 8.4273 13.5599 8.4133C13.5574 8.38509 13.5514 8.33462 13.5378 8.26903C13.51 8.13519 13.4545 7.95683 13.3468 7.77763C13.1638 7.47299 12.743 7.00917 11.5956 6.9104C10.336 6.80193 9.60686 7.14994 9.27289 7.48321C8.96055 7.79485 8.90154 8.16242 9.06289 8.52215C9.16047 8.73978 9.40344 8.97463 9.9962 9.20773C10.5051 9.40786 11.0982 9.54366 11.7823 9.70025C11.9037 9.72804 12.0281 9.75646 12.1553 9.78607C12.9261 9.96534 13.85 10.1957 14.5792 10.6336C14.9613 10.8632 15.3338 11.1738 15.6086 11.6045C15.8897 12.0449 16.0312 12.5527 16.0312 13.1095C16.0312 14.75 14.9419 15.8078 13.7111 16.3129C12.5041 16.8083 11.0199 16.8588 9.71046 16.5061C8.16031 16.0887 7.29421 15.2163 6.84481 14.3705C6.62863 13.9637 6.52001 13.585 6.46498 13.3026C6.43733 13.1606 6.42269 13.0404 6.41494 12.9496C6.41106 12.904 6.40888 12.8655 6.40768 12.8349C6.40707 12.8196 6.40671 12.8062 6.4065 12.795C6.4064 12.7893 6.40633 12.7842 6.40629 12.7796L6.40626 12.773L6.40625 12.7701V12.7687C6.40625 12.768 6.40625 12.7674 7.5 12.7691C8.59375 12.7708 8.59375 12.7701 8.59375 12.7695V12.7682V12.7658V12.7615C8.59368 12.7588 8.59368 12.7565 8.59361 12.7547C8.59354 12.7511 8.59347 12.7491 8.59347 12.7487C8.59347 12.7487 8.59368 12.7539 8.59452 12.7638C8.59641 12.7854 8.60103 12.8273 8.61209 12.8842C8.63456 12.9994 8.68125 13.1648 8.77652 13.344C8.95005 13.6707 9.33141 14.1387 10.2793 14.3939C11.1822 14.6371 12.1694 14.5811 12.8806 14.2892C13.568 14.0071 13.8437 13.5967 13.8437 13.1095C13.8437 12.9368 13.8043 12.8435 13.7646 12.7813C13.7187 12.7093 13.6304 12.6155 13.4529 12.5089C13.0628 12.2746 12.4717 12.1055 11.6597 11.9167C11.5527 11.8918 11.4416 11.8665 11.3273 11.8406C10.6531 11.6872 9.87195 11.5095 9.19554 11.2435C8.3981 10.9299 7.51113 10.4079 7.06688 9.41724C6.52211 8.20246 6.7926 6.86788 7.72771 5.93476Z" fill="white"/>
</g>
<defs>
<clipPath id="clip0_577_1346">
<rect x="20.5" y="19" width="20" height="20" rx="2" fill="white"/>
</clipPath>
<clipPath id="clip1_577_1346">
<rect width="28" height="28" fill="white" transform="translate(0.5)"/>
</clipPath>
</defs>
</svg>
