<svg width="43" height="37" viewBox="0 0 43 37" fill="none" xmlns="http://www.w3.org/2000/svg">
<g clip-path="url(#clip0_577_1274)">
<rect x="0.5" width="20" height="20" rx="2" fill="#D6F7EC"/>
<path d="M8.72875 5.94281C8.73399 5.89273 8.74927 5.84421 8.77367 5.80016C8.79808 5.75611 8.8311 5.71742 8.87078 5.68641C8.91046 5.6554 8.95597 5.6327 9.00462 5.61966C9.05326 5.60662 9.10403 5.60351 9.1539 5.61052C9.20377 5.61753 9.25171 5.63451 9.29488 5.66045C9.33804 5.68639 9.37554 5.72076 9.40513 5.76151C9.43472 5.80226 9.45581 5.84855 9.46712 5.89762C9.47843 5.94669 9.47975 5.99754 9.47099 6.04713L9.07734 8.84803C9.06345 8.94643 9.01107 9.03529 8.93171 9.0951C8.85234 9.1549 8.75249 9.18076 8.65407 9.16699L5.85317 8.77335C5.80308 8.76811 5.75457 8.75283 5.71051 8.72842C5.66646 8.70402 5.62778 8.671 5.59676 8.63132C5.56575 8.59164 5.54305 8.54612 5.53001 8.49748C5.51697 8.44884 5.51387 8.39807 5.52087 8.3482C5.52788 8.29833 5.54486 8.25038 5.57081 8.20722C5.59675 8.16406 5.63111 8.12656 5.67186 8.09697C5.71261 8.06737 5.7589 8.04629 5.80797 8.03498C5.85704 8.02366 5.90789 8.02235 5.95748 8.03111L7.86209 8.29879L4.9463 4.4294C4.88645 4.34997 4.8606 4.25002 4.87444 4.15153C4.88828 4.05304 4.94068 3.96408 5.02011 3.90423C5.09954 3.84438 5.19949 3.81853 5.29798 3.83237C5.39647 3.84621 5.48542 3.89861 5.54528 3.97804L8.46107 7.84743L8.72875 5.94281Z" fill="#007D53"/>
</g>
<g clip-path="url(#clip1_577_1274)">
<path d="M14.5 12.5C14.5 10.567 16.067 9 18 9H39C40.933 9 42.5 10.567 42.5 12.5V33.5C42.5 35.433 40.933 37 39 37H18C16.067 37 14.5 35.433 14.5 33.5V12.5Z" fill="#109968"/>
<path d="M14.5 30.4375H42.5V33.5C42.5 35.433 40.933 37 39 37H18C16.067 37 14.5 35.433 14.5 33.5V30.4375Z" fill="#007D53"/>
<path d="M39 9C40.933 9 42.5 10.567 42.5 12.5V33.6129C42.5 35.4835 40.9835 37 39.1129 37C37.3592 37 35.9375 35.5783 35.9375 33.8246V9L39 9Z" fill="#38B27F"/>
<path d="M35.9375 33.8246C35.9375 35.5783 37.3592 37 39.1129 37C40.9835 37 42.5 35.4835 42.5 33.6129C42.5 31.8592 41.0783 30.4375 39.3246 30.4375H35.9375V33.8246Z" fill="#109968"/>
<path fill-rule="evenodd" clip-rule="evenodd" d="M21.7277 14.9348C22.6412 14.0233 24.0774 13.5841 25.7833 13.731C27.6015 13.8875 28.6636 14.7217 29.2219 15.6511C29.485 16.089 29.6148 16.5117 29.6797 16.8247C29.7124 16.9825 29.7296 17.1169 29.7387 17.2177C29.7432 17.2682 29.7457 17.3108 29.7471 17.3442C29.7478 17.3609 29.7482 17.3754 29.7485 17.3875C29.7486 17.3936 29.7487 17.399 29.7487 17.4039L29.7488 17.4107V17.4137V17.4152C29.7488 17.4159 29.7488 17.4166 28.6551 17.4166C27.5613 17.4166 27.5613 17.4172 27.5613 17.4179V17.4192V17.4216L27.5614 17.4258C27.5614 17.4284 27.5614 17.4305 27.5614 17.4321C27.5615 17.4354 27.5616 17.4367 27.5616 17.4362C27.5615 17.4352 27.5612 17.4273 27.5599 17.4133C27.5574 17.3851 27.5514 17.3346 27.5378 17.269C27.51 17.1352 27.4545 16.9568 27.3468 16.7776C27.1638 16.473 26.743 16.0092 25.5956 15.9104C24.336 15.8019 23.6069 16.1499 23.2729 16.4832C22.9605 16.7949 22.9015 17.1624 23.0629 17.5222C23.1605 17.7398 23.4034 17.9746 23.9962 18.2077C24.5051 18.4079 25.0982 18.5437 25.7823 18.7003C25.9037 18.728 26.0281 18.7565 26.1553 18.7861C26.9261 18.9653 27.85 19.1957 28.5792 19.6336C28.9613 19.8632 29.3338 20.1738 29.6086 20.6045C29.8897 21.0449 30.0312 21.5527 30.0312 22.1095C30.0312 23.75 28.9419 24.8078 27.7111 25.3129C26.5041 25.8083 25.0199 25.8588 23.7105 25.5061C22.1603 25.0887 21.2942 24.2163 20.8448 23.3705C20.6286 22.9637 20.52 22.585 20.465 22.3026C20.4373 22.1606 20.4227 22.0404 20.4149 21.9496C20.4111 21.904 20.4089 21.8655 20.4077 21.8349C20.4071 21.8196 20.4067 21.8062 20.4065 21.795C20.4064 21.7893 20.4063 21.7842 20.4063 21.7796L20.4063 21.773L20.4062 21.7701V21.7687C20.4062 21.768 20.4062 21.7674 21.5 21.7691C22.5937 21.7708 22.5937 21.7701 22.5937 21.7695V21.7682V21.7658V21.7615C22.5937 21.7588 22.5937 21.7565 22.5936 21.7547C22.5935 21.7511 22.5935 21.7491 22.5935 21.7487C22.5935 21.7487 22.5937 21.7539 22.5945 21.7638C22.5964 21.7854 22.601 21.8273 22.6121 21.8842C22.6346 21.9994 22.6812 22.1648 22.7765 22.344C22.95 22.6707 23.3314 23.1387 24.2793 23.3939C25.1822 23.6371 26.1694 23.5811 26.8806 23.2892C27.568 23.0071 27.8437 22.5967 27.8437 22.1095C27.8437 21.9368 27.8043 21.8435 27.7646 21.7813C27.7187 21.7093 27.6304 21.6155 27.4529 21.5089C27.0628 21.2746 26.4717 21.1055 25.6597 20.9167C25.5527 20.8918 25.4416 20.8665 25.3273 20.8406C24.6531 20.6872 23.872 20.5095 23.1955 20.2435C22.3981 19.9299 21.5111 19.4079 21.0669 18.4172C20.5221 17.2025 20.7926 15.8679 21.7277 14.9348Z" fill="white"/>
</g>
<defs>
<clipPath id="clip0_577_1274">
<rect x="0.5" width="20" height="20" rx="2" fill="white"/>
</clipPath>
<clipPath id="clip1_577_1274">
<rect width="28" height="28" fill="white" transform="translate(14.5 9)"/>
</clipPath>
</defs>
</svg>
