<svg width="43" height="40" viewBox="0 0 43 40" fill="none" xmlns="http://www.w3.org/2000/svg">
<g clip-path="url(#clip0_577_1305)">
<rect x="21.5" y="20" width="20" height="20" rx="2" fill="#E5EDFC"/>
<path d="M36.7287 32.9428C36.734 32.8927 36.7493 32.8442 36.7737 32.8002C36.7981 32.7561 36.8311 32.7174 36.8708 32.6864C36.9105 32.6554 36.956 32.6327 37.0046 32.6197C37.0533 32.6066 37.104 32.6035 37.1539 32.6105C37.2038 32.6175 37.2517 32.6345 37.2949 32.6605C37.338 32.6864 37.3755 32.7208 37.4051 32.7615C37.4347 32.8023 37.4558 32.8485 37.4671 32.8976C37.4784 32.9467 37.4797 32.9975 37.471 33.0471L37.0773 35.848C37.0635 35.9464 37.0111 36.0353 36.9317 36.0951C36.8523 36.1549 36.7525 36.1808 36.6541 36.167L33.8532 35.7734C33.8031 35.7681 33.7546 35.7528 33.7105 35.7284C33.6665 35.704 33.6278 35.671 33.5968 35.6313C33.5658 35.5916 33.5431 35.5461 33.53 35.4975C33.517 35.4488 33.5139 35.3981 33.5209 35.3482C33.5279 35.2983 33.5449 35.2504 33.5708 35.2072C33.5967 35.1641 33.6311 35.1266 33.6719 35.097C33.7126 35.0674 33.7589 35.0463 33.808 35.035C33.857 35.0237 33.9079 35.0223 33.9575 35.0311L35.8621 35.2988L32.9463 31.4294C32.8864 31.35 32.8606 31.25 32.8744 31.1515C32.8883 31.053 32.9407 30.9641 33.0201 30.9042C33.0995 30.8444 33.1995 30.8185 33.298 30.8324C33.3965 30.8462 33.4854 30.8986 33.5453 30.978L36.4611 34.8474L36.7287 32.9428Z" fill="#0059E8"/>
</g>
<rect x="0.5" y="0.5" width="29" height="29" rx="4.5" stroke="white"/>
<path d="M1 4.5C1 2.56701 2.56701 1 4.5 1H25.5C27.433 1 29 2.56701 29 4.5V25.5C29 27.433 27.433 29 25.5 29H4.5C2.56701 29 1 27.433 1 25.5V4.5Z" fill="#1D70F5"/>
<path d="M1 24.332H29V25.4987C29 27.4317 27.433 28.9987 25.5 28.9987H4.5C2.56701 28.9987 1 27.4317 1 25.4987V24.332Z" fill="#0059E8"/>
<path d="M24.332 1H25.4987C27.4317 1 28.9987 2.56701 28.9987 4.5V25.5C28.9987 27.433 27.4317 29 25.4987 29H24.332V1Z" fill="#3C87FF"/>
<path d="M24.332 28.9987H25.4987C27.4317 28.9987 28.9987 27.4317 28.9987 25.4987V24.332H24.332V28.9987Z" fill="#1D70F5"/>
<path d="M10.6505 21.3333L7.5 8H10.0282L12.2784 18.5893L14.3763 8.53798H16.6484L18.9696 18.6721L20.9788 8H23.5L20.6354 21.3333H17.47L15.5706 13.2537L13.7901 21.3333H10.6505Z" fill="white"/>
<defs>
<clipPath id="clip0_577_1305">
<rect x="21.5" y="20" width="20" height="20" rx="2" fill="white"/>
</clipPath>
</defs>
</svg>
