<svg width="43" height="38" viewBox="0 0 43 38" fill="none" xmlns="http://www.w3.org/2000/svg">
<g clip-path="url(#clip0_577_1264)">
<rect x="0.5" width="20" height="20" rx="2" fill="#E5EDFC"/>
<path d="M8.72875 5.94281C8.73399 5.89273 8.74927 5.84421 8.77367 5.80016C8.79808 5.75611 8.8311 5.71742 8.87078 5.68641C8.91046 5.6554 8.95597 5.6327 9.00462 5.61966C9.05326 5.60662 9.10403 5.60351 9.1539 5.61052C9.20377 5.61753 9.25171 5.63451 9.29488 5.66045C9.33804 5.68639 9.37554 5.72076 9.40513 5.76151C9.43472 5.80226 9.45581 5.84855 9.46712 5.89762C9.47843 5.94669 9.47975 5.99754 9.47099 6.04713L9.07734 8.84803C9.06345 8.94643 9.01107 9.03529 8.93171 9.0951C8.85234 9.1549 8.75249 9.18076 8.65407 9.16699L5.85317 8.77335C5.80308 8.76811 5.75457 8.75283 5.71051 8.72842C5.66646 8.70402 5.62778 8.671 5.59676 8.63132C5.56575 8.59164 5.54305 8.54612 5.53001 8.49748C5.51697 8.44884 5.51387 8.39807 5.52087 8.3482C5.52788 8.29833 5.54486 8.25038 5.57081 8.20722C5.59675 8.16406 5.63111 8.12656 5.67186 8.09697C5.71261 8.06737 5.7589 8.04629 5.80797 8.03498C5.85704 8.02366 5.90789 8.02235 5.95748 8.03111L7.86209 8.29879L4.9463 4.4294C4.88645 4.34997 4.8606 4.25002 4.87444 4.15153C4.88828 4.05304 4.94068 3.96408 5.02011 3.90423C5.09954 3.84438 5.19949 3.81853 5.29798 3.83237C5.39647 3.84621 5.48542 3.89861 5.54528 3.97804L8.46107 7.84743L8.72875 5.94281Z" fill="#0059E8"/>
</g>
<rect x="13.5" y="8.5" width="29" height="29" rx="4.5" stroke="white"/>
<path d="M14 12.5C14 10.567 15.567 9 17.5 9H38.5C40.433 9 42 10.567 42 12.5V33.5C42 35.433 40.433 37 38.5 37H17.5C15.567 37 14 35.433 14 33.5V12.5Z" fill="#1D70F5"/>
<path d="M14 32.332H42V33.4987C42 35.4317 40.433 36.9987 38.5 36.9987H17.5C15.567 36.9987 14 35.4317 14 33.4987V32.332Z" fill="#0059E8"/>
<path d="M37.332 9H38.4987C40.4317 9 41.9987 10.567 41.9987 12.5V33.5C41.9987 35.433 40.4317 37 38.4987 37H37.332V9Z" fill="#3C87FF"/>
<path d="M37.332 36.9987H38.4987C40.4317 36.9987 41.9987 35.4317 41.9987 33.4987V32.332H37.332V36.9987Z" fill="#1D70F5"/>
<path d="M23.6505 29.3333L20.5 16H23.0282L25.2784 26.5893L27.3763 16.538H29.6484L31.9696 26.6721L33.9788 16H36.5L33.6354 29.3333H30.47L28.5706 21.2537L26.7901 29.3333H23.6505Z" fill="white"/>
<defs>
<clipPath id="clip0_577_1264">
<rect x="0.5" width="20" height="20" rx="2" fill="white"/>
</clipPath>
</defs>
</svg>
