<svg width="150" height="40" viewBox="0 0 150 40" fill="none" xmlns="http://www.w3.org/2000/svg">
<g clip-path="url(#clip0_577_1471)">
<path d="M16.5259 0.0400391H0V39.5623L16.5259 0.0400391Z" fill="#FA0C00"/>
<path d="M28.1523 0.0400391H44.6567V39.5623L28.1523 0.0400391Z" fill="#FA0C00"/>
<path d="M22.3412 14.6104L32.8597 39.5661H25.9586L22.8149 31.6207H15.1172L22.3412 14.6104Z" fill="#FA0C00"/>
<path d="M71.6179 25.1756L73.5666 30.7632C73.6312 30.9032 73.7281 30.9678 73.9003 30.9678H77.6469C77.8515 30.9678 77.8838 30.8709 77.8515 30.6663L70.1107 9.16647C70.0784 8.99421 70.0461 8.96191 69.8738 8.96191H65.2229C65.0937 8.96191 65.0183 9.05881 65.0183 9.19877C64.9537 10.3292 64.8568 10.6737 64.7169 11.0075L57.8158 30.634C57.7835 30.8709 57.8589 30.9678 58.0527 30.9678H61.4009C61.6055 30.9678 61.7024 30.9032 61.7777 30.6986L63.6187 25.1756H71.6179ZM64.6846 21.5259C65.6966 18.4684 67.0316 14.5495 67.5699 12.3102H67.6022C68.2697 14.6572 69.8415 19.3081 70.5521 21.5259H64.6846Z" fill="#FA0C00"/>
<path d="M87.8042 31.2988C89.8174 31.2988 91.9599 30.9327 94.1346 29.9961C94.3069 29.9315 94.3392 29.8561 94.3392 29.6946C94.2746 29.0917 94.1992 28.2197 94.1992 27.5522V7.31195C94.1992 7.18276 94.1992 7.11816 94.0377 7.11816H90.388C90.2481 7.11816 90.1835 7.18276 90.1835 7.35502V14.213C89.6129 14.1484 89.2145 14.1161 88.7408 14.1161C82.8518 14.1161 79.2344 18.0027 79.2344 22.8582C79.2344 28.4888 82.9487 31.2988 87.8042 31.2988ZM90.1835 27.5522C89.5806 27.746 88.9131 27.8213 88.2348 27.8213C85.5648 27.8213 83.3793 26.3141 83.3793 22.6536C83.3793 19.413 85.6294 17.4967 88.6116 17.4967C89.2145 17.4967 89.7421 17.5613 90.1835 17.7335V27.5522Z" fill="#FA0C00"/>
<path d="M105.983 14.1182C100.955 14.1182 97.8438 17.9724 97.8438 22.731C97.8438 26.9836 100.32 31.3008 105.908 31.3008C110.634 31.3008 113.95 27.8234 113.95 22.6234C113.95 18.037 111.14 14.1182 105.983 14.1182ZM105.778 17.4987C108.621 17.4987 109.826 19.9426 109.826 22.731C109.826 26.1762 108.05 27.888 105.983 27.888C103.431 27.888 101.924 25.7455 101.924 22.6557C101.924 19.4797 103.528 17.4987 105.778 17.4987Z" fill="#FA0C00"/>
<path d="M117.721 7.11816C117.581 7.11816 117.484 7.18276 117.484 7.35502V30.2652C117.484 30.3621 117.581 30.5344 117.721 30.5667C119.325 31.0619 121.005 31.2988 122.738 31.2988C127.701 31.2988 132.525 28.2197 132.525 22.0184C132.525 17.529 129.445 14.1161 124.622 14.1161C123.513 14.1161 122.48 14.2884 121.575 14.5898L121.532 7.38732C121.532 7.15046 121.468 7.11816 121.231 7.11816H117.721ZM128.401 22.4275C128.401 26.1418 125.86 27.8859 123.115 27.8859C122.544 27.8859 122.038 27.8536 121.575 27.7137V17.9381C122.103 17.7335 122.738 17.5613 123.912 17.5613C126.56 17.5613 128.401 19.2408 128.401 22.4275Z" fill="#FA0C00"/>
<path d="M146.146 23.6354C147.783 23.6354 149.128 23.6031 149.591 23.4954C149.764 23.4631 149.828 23.3985 149.861 23.2586C149.957 22.8925 150 22.1281 150 21.1915C150 18.0047 148.084 14.1182 143.132 14.1182C138.072 14.1182 135.262 18.2416 135.262 22.8925C135.262 27.0159 137.436 31.3008 143.53 31.3008C145.812 31.3008 147.287 30.9348 148.558 30.3319C148.687 30.2673 148.752 30.1596 148.752 29.9658V27.1774C148.752 27.0159 148.655 26.9836 148.558 27.0482C147.287 27.5865 145.909 27.8557 144.402 27.8557C140.989 27.8557 139.439 25.9716 139.342 23.6354H146.146ZM139.342 20.7501C139.611 19.1136 140.645 17.3372 142.959 17.3372C145.511 17.3372 146.179 19.4797 146.179 20.4486C146.179 20.4809 146.179 20.6209 146.179 20.7178C146.039 20.7501 145.608 20.7501 144.338 20.7501H139.342Z" fill="#FA0C00"/>
</g>
<defs>
<clipPath id="clip0_577_1471">
<rect width="150" height="39.5508" fill="white" transform="translate(0 0.0244141)"/>
</clipPath>
</defs>
</svg>
