<svg width="101" height="43" viewBox="0 0 101 43" fill="none" xmlns="http://www.w3.org/2000/svg">
<g clip-path="url(#clip0_577_1459)">
<path d="M23.1618 4.98639C19.3304 4.98639 16.9664 7.88034 16.9664 12.8123C16.9664 17.7035 19.3304 20.6382 23.1618 20.6382C26.9932 20.6382 29.3573 17.7443 29.3573 12.8123C29.3573 7.88034 27.034 4.98639 23.1618 4.98639ZM23.1618 19.7415C21.6945 19.7415 21.2461 18.1518 21.2461 12.7715C21.2461 7.39122 21.6945 5.80158 23.1618 5.80158C24.6291 5.80158 25.0775 7.43198 25.0775 12.8123C25.0775 18.1518 24.6291 19.7415 23.1618 19.7415ZM51.4085 27.119C49.7781 27.119 48.596 27.7304 47.9031 28.7902V23.4099H43.7864V33.396C43.7864 38.8172 40.6886 41.385 37.8761 41.385C35.7974 41.385 34.9415 39.9585 34.9415 35.0672C34.9415 30.176 35.4714 27.975 37.1425 27.975C38.243 27.975 39.1805 29.0347 40.118 31.4803H41.1369V27.8528C39.9141 27.3636 38.406 27.119 37.224 27.119C33.0258 27.119 30.6617 30.1353 30.6617 35.0672C30.6617 39.9585 33.0258 42.7301 37.0202 42.7301C40.3218 42.7301 42.6859 40.9774 43.7864 38.002V42.3632H47.9031V31.2766C47.9031 29.5646 48.8405 28.7087 49.8188 28.7087C50.7564 28.7087 51.0824 29.4831 51.0824 30.6651V42.4041H55.1991V31.4396C55.1991 28.3825 53.691 27.119 51.4085 27.119ZM31.8845 1.27723V20.2714H36.0012V1.27723H31.8845ZM46.7211 1.27723V6.45375C46.3543 5.55702 45.4575 4.98639 44.0309 4.98639C40.8109 4.98639 38.6507 7.88034 38.6507 12.7308C38.6507 17.7035 40.5664 20.5974 43.8679 20.5974C45.4167 20.5974 46.4765 19.8638 46.9657 18.3557V20.2306H50.7971V1.27723H46.7211ZM44.6831 19.4154C43.3788 19.4154 42.9304 18.1111 42.9304 12.69C42.9304 7.59502 43.3788 6.08691 44.7646 6.08691C46.2728 6.08691 46.8026 7.88034 46.8026 12.69C46.8026 17.5404 46.1097 19.4154 44.6831 19.4154ZM68.5684 4.98639C66.7343 4.98639 65.3891 5.96462 64.8185 7.3097C64.2479 5.76083 63.1066 4.98639 61.4761 4.98639C59.7234 4.98639 58.46 5.76083 57.8486 7.02438V5.35322H54.0171V20.2714H58.0931V9.1439C58.0931 7.43198 58.9083 6.57602 59.9273 6.57602C60.7832 6.57602 61.1501 7.26894 61.1501 8.45098V20.2714H65.2668V9.1439C65.2668 7.43198 66.0821 6.57602 67.101 6.57602C67.9571 6.57602 68.3238 7.26894 68.3238 8.45098V20.2714H72.4407V9.30694C72.4407 6.24994 70.8917 4.98639 68.5684 4.98639ZM65.1853 33.6407L62.8212 32.214C61.2316 31.2766 60.661 30.7059 60.661 29.7277C60.661 28.6272 61.4354 27.9343 62.7397 27.9343C64.2886 27.9343 65.4298 28.9532 66.1229 31.4396H67.1418V27.6081C65.8375 27.3229 64.3701 27.0782 63.0658 27.0782C59.7643 27.0782 57.7671 28.7087 57.7671 31.3581C57.7671 33.1923 58.786 34.4558 60.8647 35.7194L62.8212 36.9014C64.4517 37.8796 65.0223 38.5725 65.0223 39.6731C65.0223 41.0997 64.1255 41.8334 62.5767 41.8334C60.661 41.8334 59.5604 40.6106 58.8268 37.9204H57.8078V42.1187C59.3159 42.5263 60.9055 42.6893 62.2098 42.6893C65.9597 42.6893 68.1201 40.9366 68.1201 38.002C68.0793 36.0047 67.101 34.782 65.1853 33.6407ZM80.8779 4.98639C79.329 4.98639 77.4948 5.2717 75.7829 5.80158V9.30694H76.8019C77.6579 7.1059 78.7992 5.88311 80.4295 5.88311C81.4486 5.88311 81.8561 6.37222 81.8561 7.5135V9.42922C81.8561 10.3667 81.6116 10.652 80.5518 11.0189L79.4514 11.3857C76.1905 12.4862 74.7232 13.9128 74.7232 16.4807C74.7232 19.2116 76.3536 20.6382 78.7176 20.6382C80.3888 20.6382 81.8154 19.9045 82.2638 18.4779V20.2714H86.0137V9.42922C85.9729 6.4945 84.2202 4.98639 80.8779 4.98639ZM81.8561 16.2768C81.8561 18.2334 81.204 19.1301 80.185 19.1301C79.2067 19.1301 78.8807 18.3557 78.8807 16.3585V15.9508C78.8807 13.6275 79.3698 12.69 80.7148 11.9971L81.8561 11.4265V16.2768ZM96.6928 4.98639C94.8994 4.98639 93.595 5.76083 92.9429 7.02438V5.35322H89.0707V20.2714H93.1874V9.10314C93.1874 7.39122 94.1248 6.53526 95.1031 6.53526C96.0407 6.53526 96.3667 7.3097 96.3667 8.49175V20.2306H100.483V9.30694C100.483 6.24994 98.9753 4.98639 96.6928 4.98639ZM15.2137 36.0047C15.2137 39.8361 12.4419 42.4041 7.99914 42.4041H1.47754V35.5971H2.45578C3.3525 39.6323 5.02366 41.4258 7.83609 41.4258C10.1186 41.4258 11.3415 40.203 11.3415 38.2058C11.3415 36.0863 10.0371 35.108 8.12142 34.0074L5.22745 32.2956C2.78186 30.8689 1.39602 29.1163 1.39602 26.6707C1.39602 23.9397 2.98566 22.1871 5.55353 21.4534C1.92591 20.4752 0.621582 17.1736 0.621582 11.3042C0.621582 4.61955 3.39325 0.869629 9.05889 0.869629H14.3169V6.4945H13.2979C12.0751 2.90763 11.0154 1.80711 9.09965 1.80711C6.28722 1.80711 5.51278 4.82335 5.51278 11.4672C5.51278 19.1301 6.2057 20.842 8.28445 20.842C9.87409 20.842 10.6485 19.823 10.6485 17.4181V14.4835C10.6485 12.69 10.0779 12.0379 8.20293 11.7525V10.8151H14.48V26.8337H13.5425C12.1159 22.7985 10.2817 21.9017 8.2437 21.9017C6.24645 21.9017 5.02366 22.8393 5.02366 24.6735C5.02366 26.3853 6.04265 27.2006 7.95837 28.3418L11.0969 30.2168C13.5832 31.7657 15.2137 33.1923 15.2137 36.0047ZM23.1211 27.119C21.5722 27.119 19.738 27.4044 18.0261 27.9343V31.4396H19.0451C19.901 29.2386 21.0423 28.0158 22.6728 28.0158C23.6917 28.0158 24.0993 28.5049 24.0993 29.6461V31.5211C24.0993 32.4586 23.8547 32.7439 22.795 33.1108L21.6945 33.4775C18.4337 34.5781 16.9664 36.0047 16.9664 38.5725C16.9664 41.3035 18.5967 42.7301 20.9608 42.7301C22.6319 42.7301 24.0586 41.9964 24.5069 40.5699V42.3632H28.216V31.6027C28.216 28.6272 26.4226 27.119 23.1211 27.119ZM24.0993 38.4095C24.0993 40.366 23.4472 41.2628 22.4281 41.2628C21.45 41.2628 21.1238 40.4884 21.1238 38.491V38.0835C21.1238 35.7601 21.613 34.8227 22.958 34.1297L24.0993 33.559V38.4095Z" fill="black" fill-opacity="0.95"/>
</g>
<defs>
<clipPath id="clip0_577_1459">
<rect width="100" height="41.8605" fill="white" transform="translate(0.500488 0.869629)"/>
</clipPath>
</defs>
</svg>
