<svg width="160" height="50" viewBox="0 0 160 50" fill="none" xmlns="http://www.w3.org/2000/svg">
<g clip-path="url(#clip0_577_1442)">
<path d="M2.33236 2.32645C2.33236 1.95422 1.30612 0.930582 0.932945 0.930582H0V0H5.41108L11.0087 14.0518H11.102L16.9796 0H21.8309V0.930582H20.898C20.5248 0.930582 19.4985 1.95422 19.4985 2.32645V16.2852C19.4985 16.6574 20.6181 17.6811 20.898 17.6811H21.8309V18.6116H14.6472V17.6811H15.5802C15.9534 17.6811 16.9796 16.6574 16.9796 16.2852V2.69869L10.2624 18.8908L3.45189 2.41951V16.1921C3.45189 16.5644 4.57143 17.588 4.85131 17.588H5.78426V18.5186H0V17.588H0.932945C1.30612 17.588 2.33236 16.5644 2.33236 16.1921V2.32645Z" fill="black"/>
<path d="M29.7604 10.6081C30.1336 8.74695 29.7604 7.0719 27.708 7.0719C25.2823 7.0719 24.1628 9.02612 24.1628 11.8179C24.1628 14.5166 25.8421 16.7499 28.6409 16.7499C30.6934 16.7499 31.6263 16.0055 32.466 14.6096H33.2123C32.466 17.2152 30.7867 18.8903 27.8012 18.8903C24.4426 18.8903 22.2969 16.0055 22.2969 12.6554C22.2969 8.74695 24.9091 6.23438 28.0811 6.23438C29.947 6.23438 31.2531 6.79272 32.3727 7.90942L30.6001 10.6081H29.7604Z" fill="black"/>
<path d="M54.1094 3.62561C55.0424 3.62561 55.6955 2.9742 55.6955 2.04362C55.6955 1.11304 54.9491 0.554688 54.1094 0.554688C53.1765 0.554688 52.5234 1.11304 52.5234 2.04362C52.5234 2.9742 53.1765 3.62561 54.1094 3.62561Z" fill="black"/>
<path d="M71.1827 17.681C70.8095 17.681 69.8766 16.8435 69.8766 16.3782V9.67805C69.8766 7.63077 68.3839 6.2349 66.518 6.2349C64.3722 6.2349 63.2527 7.44465 61.76 8.93358L61.2935 6.51407H57.4684V7.44465H58.2148C58.5879 7.44465 59.5209 8.37523 59.5209 8.74747V16.4713C59.5209 16.8435 58.5879 17.7741 58.2148 17.7741H57.4684H56.7221C56.3489 17.7741 55.4159 16.9366 55.4159 16.4713V6.51407H51.1244V7.44465H51.8707C52.2439 7.44465 53.1769 8.28218 53.1769 8.65441V16.3782C53.1769 16.7505 52.2439 17.681 51.8707 17.681H51.1244H50.4713C50.0981 17.681 48.6054 16.5644 48.2323 16.0991L41.7016 7.44465L46.2731 2.60563C46.553 2.32645 48.3256 0.930582 48.6987 0.930582H49.6317V0H42.9145V0.930582H43.8474C44.2206 0.930582 45.2468 2.2334 44.967 2.51257L38.343 9.95722V2.32645C38.343 1.95422 39.4626 0.930582 39.7425 0.930582H40.6754V0H33.3984V0.930582H34.3314C34.7046 0.930582 35.7308 1.95422 35.7308 2.32645V16.2852C35.7308 16.6574 34.6113 17.681 34.3314 17.681H33.3984V18.6116H40.6754V17.681H39.7425C39.3693 17.681 38.343 16.6574 38.343 16.2852V11.3531L40.2089 9.30582L46.6463 18.6116H51.2177H57.655H63.999V17.681H63.346C62.9728 17.681 62.0398 16.8435 62.0398 16.3782V10.2364C62.0398 9.39887 64.2789 7.72383 65.9582 7.72383C67.2643 7.72383 67.9174 8.65441 67.9174 9.77111V16.3782C67.9174 16.7505 66.9844 17.681 66.6113 17.681H65.9582V18.6116H71.8358V17.681H71.1827Z" fill="black"/>
<path d="M73.4226 14.3297C73.4226 15.4464 75.1019 17.866 77.7141 17.866C79.2069 17.866 80.0465 17.3076 80.0465 16.1909C80.0465 14.795 78.8337 14.4228 77.8074 13.9575C76.9678 13.5853 76.3147 13.3061 75.2885 12.8408C73.7958 12.1894 72.7695 11.1658 72.7695 9.58378C72.7695 7.44344 74.0757 6.14062 76.408 6.14062C77.7141 6.14062 78.4605 6.79203 79.3934 6.79203C79.7666 6.79203 79.9532 6.69897 80.0465 6.4198H80.6996V10.1421H79.9532C79.9532 9.11849 78.5538 7.07121 76.3147 7.07121C74.9153 7.07121 74.2622 7.72261 74.2622 8.6532C74.2622 9.67684 75.0086 10.0491 76.2214 10.6074C77.1544 10.9796 77.8074 11.2588 78.8337 11.7241C80.1398 12.1894 81.6325 13.3061 81.6325 15.2603C81.6325 17.5868 80.0465 18.8896 77.8074 18.8896C76.3147 18.8896 75.3818 18.1451 74.3555 18.1451C73.8891 18.1451 73.7025 18.2382 73.4226 18.5174H72.8628V14.2367H73.4226V14.3297Z" fill="black"/>
<path d="M82.2852 12.5623C82.2852 9.02612 84.7108 6.23438 87.8828 6.23438C90.5884 6.23438 92.1744 8.09554 92.2677 10.5151L92.361 11.3526L84.3376 12.004C84.3376 14.4235 86.0169 16.843 88.7225 16.843C90.775 16.843 91.7079 16.0985 92.4543 14.7027H93.2006C92.361 17.3083 90.8683 18.9833 87.9761 18.9833C84.5242 18.8903 82.2852 15.9124 82.2852 12.5623ZM90.2152 10.6081C90.4018 8.93306 90.1219 7.16496 87.7895 7.16496C85.2706 7.16496 84.2443 9.21224 84.2443 11.0734L90.2152 10.6081Z" fill="black"/>
<path d="M94.4153 8.74902C94.2287 8.37679 93.1092 7.44621 92.8293 7.44621H92.2695V6.51562H98.7069V7.44621H97.9605C97.5873 7.44621 96.841 8.28373 96.841 8.74902L99.6398 15.17L102.439 8.74902C102.439 8.28373 101.692 7.44621 101.412 7.44621H100.666V6.51562H105.517V7.44621H104.958C104.678 7.44621 103.838 8.37679 103.558 8.74902L99.4532 18.0548L96.3745 24.755L95.255 24.2897L98.5203 17.6826L94.4153 8.74902Z" fill="black"/>
<path d="M36.0098 28.1996C36.0098 29.6885 37.036 30.8983 38.622 31.4566C41.0477 34.0622 43.9398 36.7609 46.4588 38.9943C47.2051 37.7846 47.3917 36.5748 47.3917 34.9928C47.3917 33.3178 46.2722 32.2941 44.4063 32.2011V31.2705H51.0302V32.2011H50.3771C50.0039 32.2011 48.6978 33.69 48.6978 34.2484C48.6045 35.8303 48.2313 37.7846 47.0185 39.4596C48.4179 40.6694 49.7241 41.693 50.8436 42.4375H51.9631V43.3681H49.9106C48.1381 43.3681 46.8319 42.9028 45.2459 41.5069C43.7532 42.9028 41.8873 43.7403 39.0885 43.7403C36.1031 43.7403 33.2109 41.5069 33.2109 38.2499C33.2109 35.6442 34.5171 33.7831 36.1964 32.5733C35.2634 31.4566 34.7037 30.3399 34.7037 28.6649C34.7037 25.9662 36.4762 24.5703 39.1818 24.5703C40.8611 24.5703 41.794 25.1287 42.5404 25.1287C42.9136 25.1287 43.1934 25.1287 43.38 24.7564H44.2197V29.1302H43.38C43.38 27.9204 41.5141 25.4078 39.0885 25.4078C37.2226 25.5009 36.0098 26.5245 36.0098 28.1996ZM35.1701 37.1332C35.1701 39.8319 37.969 42.3444 40.6745 42.3444C42.3538 42.3444 43.6599 41.8791 44.6862 41.1347C41.9806 38.8082 38.9952 35.9234 36.6628 33.2247C35.7299 34.1553 35.1701 35.1789 35.1701 37.1332Z" fill="black"/>
<path d="M71.0909 31.4566C71.0909 29.5024 68.9451 25.687 65.4 25.687C62.1346 25.687 60.2688 27.4551 59.8956 31.6427C59.8023 33.3178 59.8023 34.7137 59.9889 36.3887C60.2688 39.6457 62.5078 42.3444 66.3329 42.3444C69.5982 42.3444 71.0909 40.9486 72.3037 38.529H73.2367C72.0239 41.8791 69.4116 43.8334 65.6798 43.8334C60.3621 43.8334 56.9102 39.4596 56.9102 34.1553C56.9102 28.851 59.9889 24.5703 65.2134 24.5703C67.1725 24.5703 68.4787 25.4078 69.8781 25.4078C70.4379 25.4078 70.7177 25.2217 70.9976 24.9425H71.8373V31.5497H71.0909V31.4566Z" fill="black"/>
<path d="M74.543 37.4061C74.543 33.4976 77.3418 31.0781 80.5138 31.0781C83.6858 31.0781 86.4847 33.4976 86.4847 37.4061C86.4847 41.3145 83.6858 43.8271 80.5138 43.8271C77.3418 43.8271 74.543 41.3145 74.543 37.4061ZM84.1523 39.4534C84.3389 38.2436 84.3389 36.5686 84.1523 35.3588C83.9657 33.4046 82.8462 32.1018 80.6071 32.1018C78.4613 32.1018 77.3418 33.4046 77.0619 35.3588C76.8753 36.5686 76.8753 38.2436 77.0619 39.4534C77.3418 41.3145 78.368 42.7104 80.6071 42.7104C82.8462 42.6173 83.9657 41.3145 84.1523 39.4534Z" fill="black"/>
<path d="M106.17 41.2286C106.17 41.6008 107.103 42.5314 107.476 42.5314H108.036V43.462H101.972V42.5314H102.625C102.998 42.5314 103.931 41.6939 103.931 41.2286V34.5284C103.931 33.3186 103.371 32.5742 102.065 32.5742C100.479 32.5742 98.5198 34.0631 98.5198 34.9006V41.2286C98.5198 41.6008 99.4528 42.5314 99.8259 42.5314H100.479V43.462H94.3216V42.5314H94.9746C95.3478 42.5314 96.2807 41.6939 96.2807 41.2286V34.5284C96.2807 33.3186 95.6277 32.5742 94.3216 32.5742C92.7356 32.5742 90.7764 34.1562 90.7764 34.9937V41.2286C90.7764 41.6008 91.7093 42.5314 92.0825 42.5314H92.7356V43.462H86.5781V42.5314H87.2312C87.6044 42.5314 88.5373 41.6939 88.5373 41.2286V33.5048C88.5373 33.1325 87.6044 32.2019 87.2312 32.2019H86.5781V31.2714H90.3099L90.7764 33.5978C92.1758 32.1089 93.0154 30.9922 95.1612 30.9922C96.7472 30.9922 98.1466 31.8297 98.3332 33.5048C99.8259 32.0158 100.759 30.9922 102.811 30.9922C104.584 30.9922 106.077 32.2019 106.077 34.4353V41.2286H106.17Z" fill="black"/>
<path d="M111.579 31.3573L111.952 33.8699C112.978 31.9156 114.285 31.0781 116.337 31.0781C119.322 31.0781 121.095 33.5907 121.095 37.22C121.095 40.8492 119.043 43.734 116.15 43.734C114.005 43.734 112.885 42.8965 112.045 41.3145V47.0841C112.045 47.4564 112.978 48.3869 113.352 48.3869H114.191V49.3175H107.754V48.3869H108.594C108.967 48.3869 109.9 47.5494 109.9 47.0841V33.5907C109.9 33.2185 108.967 32.2879 108.594 32.2879H107.754V31.3573H111.579ZM112.045 35.731V38.895C112.045 40.7562 113.538 42.4312 115.591 42.4312C117.643 42.4312 118.669 41.1284 118.856 39.1742C119.043 38.0575 119.043 36.6616 118.856 35.5449C118.576 33.5907 117.55 32.3809 115.777 32.3809C113.725 32.474 112.605 33.8699 112.045 35.731Z" fill="black"/>
<path d="M147.404 42.5314C147.031 42.5314 146.098 41.6939 146.098 41.2286V34.5284C146.098 32.4811 144.606 31.0852 142.74 31.0852C140.594 31.0852 139.474 32.295 137.982 33.7839L137.515 31.2714H133.69V32.2019H134.436C134.81 32.2019 135.743 33.1325 135.743 33.5048V41.2286C135.743 41.6008 134.81 42.5314 134.436 42.5314H133.69H132.944C132.571 42.5314 131.638 41.6939 131.638 41.2286V34.6215C131.638 32.2019 129.678 30.9922 127.066 30.9922C124.64 30.9922 123.241 31.8297 122.215 32.8534L123.801 35.2729H124.641C123.708 33.2256 124.454 31.9228 126.506 31.9228C128.652 31.9228 129.399 32.8534 129.305 34.6215V36.1104L126.227 36.7618C124.547 37.134 122.308 37.9716 122.308 40.3911C122.308 42.3453 123.708 43.6481 125.387 43.6481C127.159 43.6481 128.466 42.2522 129.399 40.9494L129.678 43.3689H133.597H139.941V42.4383H139.288C138.915 42.4383 137.982 41.6008 137.982 41.1355V34.9937C137.982 34.1562 140.221 32.4811 141.9 32.4811C143.206 32.4811 143.859 33.4117 143.859 34.5284V41.1355C143.859 41.5078 142.926 42.4383 142.553 42.4383H141.807V43.3689H147.964V42.4383H147.404V42.5314ZM129.399 39.9258C128.932 40.8564 127.626 42.0661 126.413 42.0661C125.2 42.0661 124.454 41.1355 124.454 40.1119C124.454 38.9021 124.92 38.0646 126.506 37.6924L129.399 36.9479V39.9258Z" fill="black"/>
<path d="M148.9 33.6858C148.713 33.3136 147.687 32.29 147.314 32.29H146.754V31.3594H153.191V32.29H152.445C152.072 32.29 151.325 33.1275 151.325 33.5928L154.124 40.0138L156.923 33.5928C156.923 33.1275 156.177 32.29 155.897 32.29H155.15V31.3594H160.002V32.29H159.442C159.162 32.29 158.322 33.2205 158.043 33.5928L153.938 42.8986L150.859 49.5988L149.739 49.1335L153.005 42.5264L148.9 33.6858Z" fill="black"/>
</g>
<defs>
<clipPath id="clip0_577_1442">
<rect width="160" height="49.6" fill="white"/>
</clipPath>
</defs>
</svg>
