<svg width="151" height="33" viewBox="0 0 151 33" fill="none" xmlns="http://www.w3.org/2000/svg">
<g clip-path="url(#clip0_577_1465)">
<path d="M53.4451 19.2291L52.5511 21.7594H52.4766C52.3276 21.1888 52.0544 20.3206 51.6074 19.2788L46.8143 7.24775H42.1206V26.4229H45.2249V14.5904C45.2249 13.8462 45.2249 13.0028 45.2001 11.9609C45.1752 11.44 45.1256 11.0431 45.1007 10.7454H45.1752C45.3242 11.4896 45.4981 12.0353 45.6223 12.3826L51.3838 26.3733H53.5693L59.2812 12.2586C59.4054 11.9361 59.5295 11.2912 59.6537 10.7454H59.7282C59.6537 12.1594 59.604 13.4245 59.5792 14.1935V26.3485H62.8822V7.19813H58.3623L53.4451 19.2291ZM66.0113 12.6059H69.2398V26.3485H66.0113V12.6059ZM67.6504 6.80123C67.104 6.80123 66.657 6.99968 66.2845 7.34697C65.912 7.69426 65.7133 8.14077 65.7133 8.6865C65.7133 9.20744 65.912 9.65395 66.2845 10.0012C66.657 10.3485 67.104 10.5222 67.6504 10.5222C68.1968 10.5222 68.6686 10.3237 69.0163 10.0012C69.3888 9.65395 69.5875 9.20744 69.5875 8.6865C69.5875 8.16557 69.3888 7.71906 69.0163 7.34697C68.6934 6.99968 68.2216 6.80123 67.6504 6.80123ZM80.6885 12.4819C80.0925 12.3578 79.4716 12.2834 78.8756 12.2834C77.4103 12.2834 76.0693 12.6059 74.9517 13.2508C73.8342 13.8958 72.9401 14.7888 72.3689 15.9051C71.7729 17.0462 71.4749 18.3609 71.4749 19.8741C71.4749 21.1888 71.7729 22.3547 72.3441 23.4214C72.9153 24.4632 73.71 25.3067 74.7779 25.8772C75.7961 26.4477 76.9881 26.7454 78.3292 26.7454C79.8689 26.7454 81.1852 26.4229 82.2282 25.8276L82.2531 25.8028V22.826L82.1289 22.9253C81.657 23.2726 81.1107 23.5702 80.5643 23.7439C79.9931 23.9423 79.4716 24.0415 79.0246 24.0415C77.7332 24.0415 76.715 23.6695 75.9948 22.8508C75.2497 22.057 74.8772 20.9656 74.8772 19.6012C74.8772 18.1873 75.2497 17.071 76.0196 16.2524C76.7895 15.4338 77.8077 15.0121 79.0494 15.0121C80.0925 15.0121 81.1603 15.3594 82.1289 16.0539L82.2531 16.1532V13.0028L82.2282 12.978C81.806 12.8043 81.3342 12.6059 80.6885 12.4819ZM91.3425 12.3826C90.5477 12.3826 89.8027 12.6307 89.157 13.1516C88.6107 13.5981 88.2381 14.2431 87.9153 15.0121H87.8905V12.6059H84.662V26.3485H87.8905V19.3284C87.8905 18.1377 88.1388 17.1454 88.6852 16.426C89.2315 15.6819 89.9269 15.3098 90.7713 15.3098C91.0693 15.3098 91.3673 15.3842 91.7398 15.4338C92.0875 15.533 92.3358 15.6322 92.5097 15.7563L92.6338 15.8555V12.6307L92.5593 12.6059C92.3358 12.457 91.8888 12.3826 91.3425 12.3826ZM100.134 12.3082C97.8739 12.3082 96.061 12.978 94.7944 14.2927C93.5031 15.6074 92.8822 17.4183 92.8822 19.7005C92.8822 21.8338 93.5279 23.5702 94.7696 24.8353C96.0113 26.0757 97.7001 26.7206 99.811 26.7206C102.021 26.7206 103.785 26.0508 105.051 24.7113C106.342 23.3718 106.963 21.5857 106.963 19.378C106.963 17.195 106.367 15.4586 105.15 14.1935C103.983 12.9284 102.27 12.3082 100.134 12.3082ZM102.717 22.8757C102.121 23.6446 101.177 24.0167 100.01 24.0167C98.8425 24.0167 97.8987 23.6446 97.2282 22.826C96.5577 22.057 96.2348 20.9408 96.2348 19.5268C96.2348 18.0632 96.5825 16.947 97.2282 16.1532C97.8987 15.3594 98.8176 14.9625 99.9848 14.9625C101.127 14.9625 102.021 15.3346 102.667 16.1036C103.313 16.8726 103.66 17.9888 103.66 19.4524C103.611 20.9408 103.337 22.1067 102.717 22.8757ZM114.165 18.3113C113.147 17.8896 112.501 17.5671 112.203 17.2943C111.955 17.0462 111.831 16.6989 111.831 16.2524C111.831 15.8803 111.98 15.5082 112.352 15.2601C112.725 15.0121 113.147 14.8881 113.768 14.8881C114.314 14.8881 114.885 14.9873 115.432 15.1361C115.978 15.285 116.475 15.5082 116.872 15.8059L116.996 15.9051V12.8788L116.922 12.8539C116.549 12.7051 116.053 12.5563 115.457 12.4322C114.861 12.333 114.314 12.2834 113.867 12.2834C112.328 12.2834 111.061 12.6555 110.068 13.4741C109.074 14.2431 108.602 15.285 108.602 16.5005C108.602 17.1454 108.702 17.716 108.925 18.1873C109.149 18.6586 109.472 19.1051 109.919 19.4772C110.366 19.8245 111.011 20.2214 111.905 20.5935C112.65 20.916 113.222 21.164 113.569 21.3625C113.917 21.5609 114.14 21.7842 114.314 21.9578C114.438 22.1563 114.513 22.4043 114.513 22.7268C114.513 23.6446 113.818 24.0912 112.402 24.0912C111.856 24.0912 111.285 23.9919 110.614 23.7687C109.943 23.5454 109.323 23.2229 108.801 22.8508L108.677 22.7516V25.902L108.751 25.9268C109.223 26.1501 109.794 26.2989 110.49 26.4726C111.185 26.5966 111.806 26.6958 112.352 26.6958C114.016 26.6958 115.382 26.3237 116.351 25.5051C117.344 24.7113 117.866 23.6943 117.866 22.3795C117.866 21.4617 117.617 20.6431 117.071 20.0229C116.351 19.4276 115.457 18.8074 114.165 18.3113ZM126.384 12.3082C124.124 12.3082 122.311 12.978 121.044 14.2927C119.778 15.6074 119.132 17.4183 119.132 19.7005C119.132 21.8338 119.778 23.5702 121.02 24.8353C122.261 26.0757 123.95 26.7206 126.061 26.7206C128.271 26.7206 130.035 26.0508 131.301 24.7113C132.592 23.3718 133.213 21.5857 133.213 19.378C133.213 17.195 132.617 15.4586 131.4 14.1935C130.233 12.9284 128.52 12.3082 126.384 12.3082ZM128.942 22.8757C128.346 23.6446 127.402 24.0167 126.235 24.0167C125.043 24.0167 124.124 23.6446 123.453 22.826C122.783 22.057 122.46 20.9408 122.46 19.5268C122.46 18.0632 122.808 16.947 123.453 16.1532C124.124 15.3594 125.043 14.9625 126.21 14.9625C127.328 14.9625 128.246 15.3346 128.892 16.1036C129.538 16.8726 129.885 17.9888 129.885 19.4524C129.885 20.9408 129.563 22.1067 128.942 22.8757ZM150.473 15.2601V12.6059H147.22V8.53767L147.121 8.56247L144.041 9.4803L143.967 9.50511V12.6059H139.099V10.8695C139.099 10.0757 139.298 9.4555 139.645 9.0586C139.993 8.6617 140.515 8.46325 141.16 8.46325C141.607 8.46325 142.079 8.56247 142.601 8.78573L142.725 8.86015V6.05705L142.65 6.03224C142.203 5.8834 141.607 5.78418 140.837 5.78418C139.869 5.78418 139.025 6.00744 138.255 6.37953C137.485 6.80123 136.914 7.37178 136.491 8.14077C136.069 8.88495 135.846 9.72837 135.846 10.6958V12.6059H133.586V15.2353H135.846V26.3485H139.099V15.2601H143.967V22.3299C143.967 25.2322 145.333 26.6958 148.064 26.6958C148.511 26.6958 148.983 26.6214 149.43 26.547C149.902 26.4477 150.25 26.3237 150.448 26.2245L150.473 26.1997V23.5454L150.349 23.6446C150.15 23.7687 149.977 23.8679 149.679 23.9423C149.43 24.0167 149.207 24.0415 149.033 24.0415C148.387 24.0415 147.94 23.8927 147.617 23.5206C147.319 23.1733 147.17 22.6028 147.17 21.7594V15.2601H150.473Z" fill="#737373"/>
<path d="M0.499512 0.799805H15.723V16.006H0.499512V0.799805Z" fill="#F25022"/>
<path d="M17.312 0.799805H32.5355V16.006H17.312V0.799805Z" fill="#7FBA00"/>
<path d="M0.499512 17.5967H15.723V32.8029H0.499512V17.5967Z" fill="#00A4EF"/>
<path d="M17.312 17.5967H32.5355V32.8029H17.312V17.5967Z" fill="#FFB900"/>
</g>
<defs>
<clipPath id="clip0_577_1465">
<rect width="150" height="32" fill="white" transform="translate(0.499512 0.799805)"/>
</clipPath>
</defs>
</svg>
