<svg width="110" height="31" viewBox="0 0 110 31" fill="none" xmlns="http://www.w3.org/2000/svg">
<g clip-path="url(#clip0_1532_1285)">
<path d="M104.122 14.5944L110 30.1531C108.277 29.9169 106.52 29.5794 104.764 29.3094L101.453 20.7031L98.0406 28.6006C96.3851 28.3306 94.7297 28.2294 93.0405 28.0269L99.0203 14.4256L93.6149 0.453125H98.6487L101.689 8.24938L104.932 0.453125H110L104.122 14.5944ZM89.6622 0.453125H85.1013V27.4194C86.5878 27.5206 88.1419 27.5881 89.6622 27.7569V0.453125ZM81.1824 27.1156C77.027 26.8456 72.8716 26.5756 68.6487 26.5081V0.453125H73.277V22.1206C75.9459 22.1881 78.6149 22.3906 81.1824 22.5256V27.1156ZM63.6824 11.0169V15.6406H57.3311V26.2044H52.7365V0.453125H65.7432V5.07688H57.3311V10.9831H63.6824V11.0169ZM44.9324 5.07688V26.4406C43.3784 26.4406 41.7905 26.4406 40.2703 26.5081V5.07688H35.473V0.453125H49.7635V5.07688H44.9324ZM30.473 15.8769C28.4459 15.8769 26.0135 15.8769 24.2905 15.9781V22.8631C27.027 22.6606 29.7297 22.4581 32.5 22.3569V26.8119L19.6622 27.8244V0.453125H32.5V5.07688H24.2905V11.3206C26.0811 11.3206 28.8514 11.2194 30.473 11.2194V15.8769ZM4.72973 13.2781V29.4781C3.07432 29.6806 1.58784 29.9169 0 30.1531V0.453125H4.42568L10.473 17.3281V0.453125H15.1351V28.2294C13.4797 28.4994 11.8243 28.6006 10.0676 28.8369L4.72973 13.2781Z" fill="#E50914"/>
</g>
<defs>
<clipPath id="clip0_1532_1285">
<rect width="110" height="29.7" fill="white" transform="translate(0 0.453125)"/>
</clipPath>
</defs>
</svg>
