<svg width="90" height="35" viewBox="0 0 90 35" fill="none" xmlns="http://www.w3.org/2000/svg">
<path d="M81.9022 3.48361C78.067 4.16544 76.0215 7.0632 76.0215 12.0917C76.0215 17.2054 78.7488 20.6145 82.7545 20.6145C84.7148 20.6145 86.4193 19.9327 89.9989 18.1429C89.9989 22.3191 89.9989 22.3191 89.9989 22.3191C85.6523 24.3646 83.0954 24.8759 79.6863 24.8759C75.8511 24.8759 73.1238 23.9384 70.9931 21.6372C68.7772 19.4213 67.584 16.5235 67.584 13.1996C67.584 5.95523 73.0386 0.926758 80.9647 0.926758C86.1636 0.926758 89.8284 3.39838 89.8284 6.89274C89.8284 9.19391 88.1239 10.8132 85.6523 10.8132C84.3738 10.8132 83.3511 10.3871 81.9022 9.62005" fill="black"/>
<path d="M62.7312 13.1996C66.2256 8.85299 67.504 7.0632 67.504 4.93249C67.504 2.80178 65.7994 0.926758 63.413 0.926758C62.0494 0.926758 60.771 1.69381 60.1744 2.37564C60.1744 11.3246 60.1744 11.3246 60.1744 11.3246C54.4641 18.9952 54.4641 18.9952 54.4641 18.9952C54.4641 1.60858 54.4641 1.60858 54.4641 1.60858C49.0096 1.60858 49.0096 1.60858 49.0096 1.60858C39.9754 16.5235 39.9754 16.5235 39.9754 16.5235C39.9754 1.60858 39.9754 1.60858 39.9754 1.60858C36.9072 1.60858 36.9072 1.60858 36.9072 1.60858C28.6401 3.48361 28.6401 3.48361 28.6401 3.48361C28.6401 5.61432 28.6401 5.61432 28.6401 5.61432C33.1572 6.04046 33.1572 6.04046 33.1572 6.04046C33.1572 24.535 33.1572 24.535 33.1572 24.535C38.8675 24.535 38.8675 24.535 38.8675 24.535C47.5607 10.2166 47.5607 10.2166 47.5607 10.2166C47.5607 24.535 47.5607 24.535 47.5607 24.535C53.9528 24.535 53.9528 24.535 53.9528 24.535" fill="black"/>
<path d="M11.3363 21.6338C12.0181 21.6338 12.1885 21.6338 12.6147 21.6338C17.217 21.6338 19.7738 18.8212 19.7738 13.1962C19.7738 8.50861 17.7283 5.95176 13.8931 5.95176C13.3817 5.95176 12.6147 6.03699 11.3363 6.29268V21.6338ZM11.3363 31.6907C15.0863 32.543 15.0863 32.543 15.0863 32.543C15.0863 34.6737 15.0863 34.6737 15.0863 34.6737C0.341887 34.6737 0.341889 34.6737 0.341889 34.6737C0.341889 32.543 0.341889 32.543 0.341889 32.543C3.751 31.6907 3.751 31.6907 3.751 31.6907C3.751 5.95176 3.751 5.95176 3.751 5.95176C0.000976101 5.95176 0.000976562 5.95176 0.000976562 5.95176C0.000976562 3.82105 0.000976562 3.82106 0.000976562 3.82106C8.94989 1.09375 8.94989 1.09375 8.94989 1.09375C11.3363 1.09375 11.3363 1.09375 11.3363 1.09375C11.3363 4.16197 11.3363 4.16197 11.3363 4.16197C15.5124 1.60512 16.9613 1.17898 19.1772 1.17898C24.1204 1.17898 27.8704 5.78131 27.8704 12.1734C27.8704 19.5031 22.842 24.5315 15.1715 24.5315C14.3192 24.5315 12.8704 24.4463 11.3363 24.3611" fill="black"/>
</svg>
