<svg width="100" height="42" viewBox="0 0 100 42" fill="none" xmlns="http://www.w3.org/2000/svg">
<g clip-path="url(#clip0_1532_1261)">
<mask id="mask0_1532_1261" style="mask-type:luminance" maskUnits="userSpaceOnUse" x="0" y="0" width="100" height="42">
<path d="M100 0.632812H0V41.9661H100V0.632812Z" fill="white"/>
</mask>
<g mask="url(#mask0_1532_1261)">
<path d="M32.9482 5.39005C32.9482 8.04162 30.8503 10.1473 28.2085 10.1473C25.6444 10.1473 23.4688 8.04162 23.4688 5.39005C23.4688 2.73847 25.6444 0.632812 28.2085 0.632812C30.8503 0.632812 32.9482 2.73847 32.9482 5.39005Z" fill="#4050FB"/>
<path d="M33.0966 5.39005C33.0966 8.04162 30.9987 10.1473 28.3569 10.1473C25.7151 10.1473 23.6172 8.04162 23.6172 5.39005C23.6172 2.73847 25.7928 0.632812 28.3569 0.632812C30.9987 0.632812 33.0966 2.73847 33.0966 5.39005Z" fill="#4050FB"/>
<path d="M20.202 12.2524V19.2713H12.0435V30.9694C12.0435 33.543 13.209 34.5568 15.9285 34.5568H20.202V41.2637H15.3069C7.61461 41.2637 4.1958 37.8323 4.1958 31.2813V19.2713H0V12.2524C2.331 12.2524 4.1958 10.3807 4.1958 8.0411V4.76562H12.0435V12.2524H20.202Z" fill="#4050FB"/>
<path d="M32.3243 12.25H24.4766V41.2613H32.3243V12.25Z" fill="#4050FB"/>
<path d="M58.8972 39.1619C56.877 40.7996 53.6913 41.7355 50.4279 41.7355C42.5025 41.7355 35.8203 35.3405 35.8203 26.9179C35.8203 18.5732 42.5025 11.9443 50.4279 11.9443C53.6913 11.9443 56.877 12.9581 58.8972 14.5179V2.50781H66.7449V41.2676H58.8972V39.1619ZM59.0526 26.9179C59.0526 22.6286 55.5561 19.1191 51.1272 19.1191C46.8537 19.1191 43.5126 22.6286 43.5126 26.9179C43.5126 31.2852 46.8537 34.7166 51.1272 34.7166C55.6338 34.7166 59.0526 31.2852 59.0526 26.9179Z" fill="#4050FB"/>
<path d="M84.612 41.9622C75.3657 41.9622 69.3828 35.4893 69.3828 26.8327C69.3828 18.488 75.5988 11.7031 84.6897 11.7031C93.8583 11.7031 99.375 18.0201 99.375 26.5207C99.375 27.6126 99.2973 29.0943 99.2973 29.3283H77.1528C78.0075 32.9937 80.727 35.4113 84.8451 35.4113C88.3416 35.4113 90.9057 33.9295 92.5374 31.5899L98.4426 35.1773C95.5677 39.3107 91.0611 41.9622 84.612 41.9622ZM77.3859 23.4012H91.4496C90.5949 19.8918 87.7977 18.0981 84.612 18.0981C80.9601 18.1761 78.396 20.1258 77.3859 23.4012Z" fill="#4050FB"/>
</g>
</g>
<defs>
<clipPath id="clip0_1532_1261">
<rect width="100" height="41.3333" fill="white" transform="translate(0 0.632812)"/>
</clipPath>
</defs>
</svg>
